<svg width="64" height="44" viewBox="0 0 64 44" fill="none" xmlns="http://www.w3.org/2000/svg">
<path d="M63.9736 31.0077C63.7898 29.5176 63.0348 28.225 61.7236 27.1612C61.7073 27.1414 61.6893 27.123 61.6698 27.1062L61.6036 27.0587L61.5823 27.0437L60.8861 26.5437L60.8624 26.5262L60.7736 26.4637C60.741 26.4447 60.7062 26.43 60.6698 26.42C58.4674 25.1086 54.8211 24.1898 49.2424 26.1587C47.9111 23.9186 47.7599 22.1235 48.6511 19.3734C48.8099 18.8946 48.6624 18.5783 48.1874 18.3733C47.2324 17.967 45.9249 18.1746 44.9974 18.4196C44.5649 18.5321 44.3049 18.7771 44.2224 19.1484C43.6349 21.8985 41.9274 24.4111 40.2761 26.8362L40.1786 26.9787C39.1611 24.8211 39.3724 23.1498 40.0811 21.0559C40.2224 20.6384 40.1111 20.3609 39.7199 20.1534C38.6274 19.5896 36.9886 19.9771 36.3361 20.1697C35.5086 20.4109 34.6211 22.6473 33.6299 25.3249C33.3799 25.9987 33.1649 26.575 33.0361 26.8437C32.7299 27.4688 32.4374 28.1813 32.1274 28.9376C31.4274 30.6489 30.6386 32.5753 29.5111 33.7853C29.1011 32.879 29.7461 31.4502 30.3724 30.0639C31.1136 28.4251 31.8136 26.8762 31.0074 25.8874C30.8799 25.7311 30.7217 25.6025 30.5426 25.5097C30.3635 25.4168 30.1673 25.3616 29.9661 25.3474C29.7036 25.3274 29.44 25.3703 29.1974 25.4724C29.2811 24.7661 29.2849 24.2086 29.0786 23.5348C28.7836 22.5735 28.0174 22.0347 26.9624 22.0635C24.5599 22.1335 22.5274 23.9236 21.2436 25.4137C20.3886 26.4137 18.4936 27.1762 16.8299 27.845C16.1724 28.1238 15.5474 28.3738 15.0261 28.6238C14.1949 27.9213 13.1386 27.2125 12.0261 26.4637C8.90112 24.3661 5.35988 21.9872 5.23738 18.7621C5.06238 13.9981 10.4874 10.6192 15.2224 8.20782C18.8111 6.38273 21.9311 5.17267 24.7611 4.51139C28.7361 3.58259 32.0936 3.7701 34.7386 5.06642C36.1861 5.7752 36.8636 7.31653 36.4336 8.9016C35.3086 13.0206 30.6474 15.8432 26.6611 17.1133C24.2599 17.8783 22.2161 18.1983 20.4111 18.0933C18.1486 17.962 16.3011 16.827 15.5111 16.3432C15.3846 16.2568 15.2507 16.1815 15.1111 16.1182L15.0749 16.1095C15.0033 16.0917 14.9283 16.0939 14.8579 16.1159C14.7876 16.138 14.7247 16.179 14.6761 16.2345C14.5136 16.4282 14.5711 16.7345 14.6299 16.8895C15.3986 18.8983 16.9861 20.1672 19.3474 20.6609C20.1201 20.8157 20.9068 20.8907 21.6949 20.8847C27.2211 20.8847 34.2724 17.6983 36.8624 15.0744C38.6286 13.2868 39.9149 11.4492 40.4474 8.28032C41.0036 4.96141 38.7536 2.65505 36.4611 1.5925C30.8899 -0.978879 24.5624 0.037421 20.2349 1.34248C15.1724 2.86881 9.93487 5.64394 5.86738 8.95911C0.852378 13.0431 -0.960122 16.8345 0.477378 20.2409C1.95363 23.7323 5.55363 25.9162 9.03487 28.0288C10.1599 28.7101 11.2299 29.3588 12.1936 30.0289C11.9036 30.1701 11.6074 30.3139 11.3061 30.4577C8.38363 31.874 5.06863 33.4678 3.22988 36.1017C1.89488 38.0205 1.64488 39.9306 2.48738 41.7795C2.93738 42.7633 3.73738 43.4308 4.84863 43.7633C5.42669 43.9271 6.02535 44.0067 6.62612 43.9996C8.78987 43.9996 11.1711 43.1245 12.4674 42.3157C14.7574 40.8782 16.2411 38.9481 16.8786 36.5792C17.4461 34.4716 17.3099 32.3777 16.4849 30.5089L19.2911 29.0938C17.9374 33.5941 18.9749 36.2817 20.1149 37.7643C20.5349 38.3105 21.2924 38.6393 22.1386 38.6543C22.9849 38.6693 23.7636 38.3505 24.2036 37.808C25.0361 36.7767 25.6511 35.5704 26.2174 34.3641C26.1874 35.1516 26.2249 35.9492 26.4936 36.6255C26.7349 37.2342 27.1324 37.638 27.6449 37.793C28.1899 37.9593 28.8286 37.8193 29.4436 37.3992C32.2149 35.5029 34.1099 30.9514 35.6324 27.2925C35.8486 26.7725 36.0561 26.2725 36.2574 25.8049C36.634 27.153 37.158 28.4555 37.8199 29.6889C37.9674 29.9564 37.9549 30.0739 37.7549 30.2939C37.4536 30.6239 37.0336 31.0227 36.5886 31.4452C35.2411 32.724 33.5636 34.3203 33.3386 35.7242C33.2511 36.2867 33.6386 36.7992 34.2399 36.9155C36.0486 37.2755 38.2274 36.7492 40.0699 35.5091C41.7449 34.3841 42.3749 32.8153 41.9449 30.8602C41.5286 28.9776 42.4786 26.64 44.7686 23.9073C45.1436 25.4737 45.6436 26.74 46.3336 27.8488L46.3149 27.8638C44.6474 29.3201 42.3624 31.3139 42.7174 33.7328C42.7471 33.9629 42.8245 34.1842 42.9446 34.3826C43.0647 34.5811 43.2249 34.7523 43.4149 34.8854C43.6179 35.0224 43.847 35.1161 44.088 35.1604C44.3289 35.2047 44.5764 35.1987 44.8149 35.1429C46.9986 34.6841 48.6424 33.7603 49.8374 32.3215C51.0324 30.8827 50.5961 29.2876 50.1936 28.05C53.3186 27.2025 56.1011 27.2237 58.7061 28.1125C60.1686 28.6126 61.2174 29.4339 61.8223 30.5677C62.5836 31.994 62.1723 33.3103 60.6611 34.2741C60.1973 34.5704 59.9736 34.7516 59.9599 34.9804C59.9568 35.0335 59.9665 35.0865 59.9883 35.135C60.0101 35.1835 60.0432 35.2261 60.0849 35.2591C60.2599 35.4029 60.7999 35.6529 62.0211 34.8841C63.1461 34.1778 63.8061 33.2165 63.9748 32.009C64.0088 31.6761 64.0084 31.3405 63.9736 31.0077ZM14.0074 34.1403L13.9949 34.3003C13.7999 36.1304 12.8699 37.7255 11.2261 39.0506C10.1936 39.8831 9.07237 40.3944 8.06987 40.4919C7.36987 40.5594 6.86112 40.4644 6.55862 40.2081C6.33238 40.0169 6.21112 39.7306 6.18363 39.3331C5.97863 36.1479 10.9736 32.9828 13.7849 31.9415C13.9855 32.6561 14.0608 33.4 14.0074 34.1403ZM26.8011 25.1574C26.3386 27.7938 24.9899 32.7703 22.8699 34.7016C22.7686 34.7941 22.6836 34.8266 22.6449 34.8179C22.6061 34.8091 22.5761 34.7629 22.5449 34.6929C21.8374 33.0528 22.0986 30.2826 23.1699 28.1063C23.9936 26.4287 25.1699 25.3174 26.4849 24.9811C26.5394 24.9661 26.5957 24.9581 26.6524 24.9574C26.6966 24.9543 26.7407 24.9662 26.7774 24.9911C26.7928 25.0156 26.803 25.0431 26.807 25.0717C26.8111 25.1004 26.8091 25.1296 26.8011 25.1574ZM37.2374 34.7679C36.8386 35.1841 36.2924 35.1279 36.4211 34.9754L38.4511 32.8203C38.2874 33.5616 37.8036 34.1753 37.2374 34.7679ZM45.6586 32.904C45.4656 32.9992 45.2567 33.0581 45.0424 33.0778C44.9849 31.944 46.0836 30.6677 47.1674 29.8164C47.4586 30.9989 46.8624 32.249 45.6586 32.904Z" fill="#303030"/>
</svg>
