<svg width="73" height="20" viewBox="0 0 73 20" fill="none" xmlns="http://www.w3.org/2000/svg">
<path d="M56.7084 9.97871C56.7388 12.771 56.72 15.5604 56.72 18.3469C56.72 19.0007 56.6431 19.0747 55.9748 19.0747C55.2021 19.079 54.4264 19.079 53.6522 19.0747C53.0477 19.0747 52.9795 19.0094 52.9795 18.4194C52.9795 15.7112 52.9882 13.0044 52.9708 10.2948C52.9708 9.84243 52.9085 9.38865 52.8259 8.94211C52.7084 8.29696 52.2706 7.93016 51.6457 7.82723C50.5105 7.63875 49.4899 7.9983 48.5388 8.58402C48.4127 8.66231 48.3634 8.94501 48.3634 9.13349C48.3504 11.4125 48.3547 13.6916 48.3547 15.9707C48.3547 16.829 48.3446 17.6843 48.3591 18.5397C48.3663 18.9326 48.1938 19.0834 47.811 19.079C46.9542 19.0631 46.0974 19.0747 45.2406 19.0718C44.7447 19.0689 44.6085 18.9297 44.6085 18.4237C44.607 14.1135 44.607 9.80474 44.6085 5.49452C44.6085 5.04074 44.7447 4.89866 45.2 4.89576C45.9727 4.88851 46.744 4.88996 47.5225 4.89431C48.0126 4.89721 48.0966 4.98855 48.1082 5.47568C48.1111 5.6627 48.1285 5.84682 48.1401 6.14403C48.3939 5.9831 48.5417 5.89322 48.6896 5.79463C50.1988 4.77108 51.8748 4.52172 53.6334 4.83342C55.2441 5.11468 56.1212 6.19187 56.4474 7.72139C56.6112 8.46223 56.6997 9.22482 56.7084 9.97871ZM72.0602 3.9215L71.8818 4.40428C71.8398 4.53041 71.8021 4.63915 71.7775 4.74063H71.776C71.7456 4.63625 71.7151 4.52606 71.6745 4.40428L71.5049 3.9215H71.3411L71.2729 4.91896H71.3947L71.4237 4.48982C71.4324 4.33904 71.4397 4.17232 71.4426 4.04909H71.4454C71.4759 4.16652 71.5136 4.29555 71.56 4.43618L71.7224 4.91316H71.8195L71.9949 4.42748C72.0457 4.28975 72.0848 4.16507 72.1196 4.04909H72.1225C72.1225 4.17087 72.1312 4.34194 72.1413 4.47967L72.1645 4.91896H72.295L72.2327 3.9215H72.0602ZM33.0015 9.03635C33.0841 12.194 33.0682 15.3574 33.087 18.5194C33.0885 18.9413 32.9348 19.079 32.5013 19.0819C31.7547 19.0848 31.0095 19.0834 30.2643 19.0819C29.6322 19.0819 29.5539 19.0036 29.522 18.3802C29.5191 18.3121 29.506 18.2454 29.4886 18.1135C29.0639 18.3498 28.7029 18.5759 28.323 18.7601C26.9965 19.4023 25.6148 19.4618 24.2201 19.0515C22.9646 18.6774 22.1962 17.8134 21.8889 16.5448C21.6671 15.6285 21.6482 14.7079 21.8323 13.796C22.1194 12.3839 23.0719 11.5996 24.397 11.2023C25.6801 10.8138 27.0008 10.7703 28.3259 10.7833C29.2741 10.7949 29.2755 10.7862 29.2726 9.82503C29.2726 9.57712 29.29 9.32196 29.2451 9.08129C29.103 8.30711 28.584 7.82433 27.7286 7.82433C26.2962 7.82433 24.8624 7.88522 23.4314 7.96641C22.7297 8.00845 22.637 7.97366 22.637 7.26471C22.637 6.76744 22.6457 6.26871 22.6341 5.77433C22.6283 5.49742 22.737 5.3075 23.0009 5.25241C25.2234 4.77833 27.4575 4.45068 29.7119 5.01029C31.7445 5.51047 32.9464 6.92401 33.0015 9.03635ZM29.3611 15.4473C29.3277 15.1182 29.3538 14.7848 29.3538 14.4513C29.3538 14.0236 29.3698 13.5945 29.3422 13.1682C29.335 13.061 29.1885 12.8739 29.1117 12.8768C28.2476 12.9073 27.3792 12.9305 26.5209 13.0363C25.9947 13.103 25.609 13.4872 25.5032 14.012C25.4046 14.5035 25.3756 15.0225 25.4162 15.5256C25.4626 16.0765 25.8598 16.3984 26.4021 16.4911C27.2734 16.6419 28.094 16.4723 28.9058 16.1577C29.2552 16.0243 29.4046 15.83 29.3611 15.4473ZM69.9029 9.81779C69.9101 12.6913 69.9072 15.5662 69.9058 18.4397C69.9058 19.0094 69.8347 19.0747 69.2563 19.0747C68.5372 19.079 67.821 19.079 67.1019 19.0747C66.4843 19.0747 66.4451 19.0384 66.4132 18.4368C66.4103 18.3657 66.4031 18.2976 66.3886 18.228C66.3857 18.2019 66.3596 18.1859 66.3176 18.1222C66.2277 18.1628 66.145 18.1889 66.0798 18.2352C65.1171 18.9529 64.0095 19.2327 62.8337 19.324C60.5068 19.5125 58.7279 17.9815 58.6177 15.6503C58.5902 15.0762 58.5757 14.4904 58.6612 13.9265C58.8729 12.5666 59.7109 11.6634 61.0026 11.2995C61.9769 11.0269 62.999 10.9109 64.0066 10.792C64.5923 10.721 65.194 10.7717 65.7884 10.7804C66.0493 10.7891 66.1784 10.6993 66.1639 10.4267C66.1421 10.0164 66.1798 9.59452 66.1102 9.18858C65.9551 8.28246 65.4419 7.81128 64.5256 7.81418C63.1063 7.82288 61.6869 7.88667 60.2662 7.96641C59.5529 8.0041 59.4514 7.94756 59.4514 7.21397C59.4514 6.75874 59.4528 6.30205 59.4514 5.84682C59.4499 5.49307 59.6021 5.2959 59.9646 5.21181C61.6159 4.83922 63.2832 4.6377 64.9707 4.74353C65.6768 4.78848 66.3944 4.9436 67.0671 5.16832C68.672 5.70329 69.5578 6.88342 69.8159 8.53617C69.8811 8.96241 69.9014 9.393 69.9029 9.81779ZM66.2509 15.5792C66.2335 15.2037 66.248 14.8326 66.2451 14.4614C66.2451 14.0642 66.2378 13.6612 66.2509 13.261C66.2567 12.9885 66.1624 12.8507 65.8681 12.8638C65.3447 12.8754 64.8156 12.8333 64.2951 12.8739C62.551 13.0059 62.235 13.6539 62.2132 15.0878C62.2016 15.9315 62.5945 16.3868 63.2658 16.5013C64.198 16.6535 65.0693 16.4607 65.9174 16.0852C66.1479 15.9823 66.261 15.8431 66.2509 15.5792ZM19.1386 0.00273297C18.3369 0.00273297 17.5366 0.00273297 16.7349 0.00273297C16.1332 0.00418276 16.0767 0.0636239 16.0767 0.672534C16.0767 3.61415 16.0767 6.55721 16.0767 9.49883C16.0767 12.4955 16.0767 15.4922 16.0767 18.4919C16.0767 18.9891 16.1622 19.0718 16.6522 19.0747C17.438 19.079 18.2253 19.0747 19.0139 19.0747C19.7548 19.0747 19.8229 19.0094 19.8229 18.2787C19.8229 13.2364 19.8229 8.19403 19.8229 3.15312C19.8229 2.32384 19.8244 1.49601 19.8229 0.666735C19.8215 0.102768 19.7171 0.00418276 19.1386 0.00273297ZM70.448 4.03024H70.7524V4.91896H70.8829V4.03024H71.1874V3.9215H70.448V4.03024ZM42.5164 4.72614C41.4378 4.77253 40.4635 5.11178 39.5908 5.74244C39.4719 5.82942 39.353 5.90916 39.1747 6.03674C39.1602 5.83812 39.1442 5.72069 39.1442 5.60181C39.1326 5.00739 39.0282 4.89721 38.4469 4.89721C37.6973 4.89431 36.955 4.89576 36.2084 4.89576C35.5256 4.89721 35.4125 5.00739 35.4125 5.68734C35.4125 7.59236 35.4125 9.50028 35.4125 11.4053C35.4125 13.7163 35.411 16.0229 35.4125 18.3266C35.4125 18.9384 35.5473 19.0747 36.1287 19.0747C36.9145 19.079 37.7046 19.079 38.4918 19.0747C39.1268 19.0747 39.2283 18.979 39.2283 18.3237C39.2298 15.2603 39.2327 12.1925 39.2225 9.12189C39.2225 8.81888 39.3109 8.64636 39.5893 8.51443C40.5114 8.08094 41.4566 7.75619 42.4932 7.79823C42.8731 7.81418 43.0572 7.67065 43.0485 7.26906C43.0325 6.59056 43.0354 5.91641 43.047 5.23936C43.0485 4.86966 42.8832 4.71164 42.5164 4.72614ZM3.39105 0.00418196C2.65891 -0.000167397 1.92677 -0.003065 1.19317 0.00563372C0.424787 0.017232 0 0.455066 0 1.22635C0 4.07228 0 6.91966 0 9.76559C0 12.655 0 15.5401 0 18.4295C0 18.9355 0.06814 19.0036 0.575565 19.0036C1.32076 19.0094 2.06739 19.0094 2.81258 19.0036C3.59547 18.9978 3.98836 18.6078 3.98836 17.8293C3.98836 12.0954 3.98836 6.3586 3.98836 0.626141C3.98981 0.123066 3.88398 0.00853132 3.39105 0.00418196ZM11.6258 13.0088C10.0253 11.3357 8.05646 10.4151 5.90933 10.202C5.21633 10.1889 5.21053 10.1889 5.22938 10.7123C5.23663 10.9051 5.27432 11.095 5.30332 11.2864C5.68751 13.8308 6.93143 15.8576 9.00172 17.3726C10.3587 18.3701 11.894 18.8876 13.5656 19.0442C14.0629 19.0921 14.147 19.0573 14.0977 18.5701C13.8846 16.4477 13.1119 14.5644 11.6258 13.0088ZM13.5772 0.0505773C13.3873 0.0810228 13.1902 0.0694231 13.0017 0.0984188C10.8241 0.444918 8.97563 1.40902 7.50554 3.06033C6.15869 4.57101 5.4106 6.3528 5.23373 8.3651C5.18878 8.88992 5.21778 8.89137 5.77015 8.96241C6.52839 8.77539 7.31707 8.66085 8.04196 8.3854C11.6621 7.011 13.6425 4.34339 14.0992 0.515957C14.1572 0.030279 14.076 -0.0248116 13.5772 0.0505773Z" fill="#303030"/>
</svg>
