<svg width="67" height="20" viewBox="0 0 67 20" fill="none" xmlns="http://www.w3.org/2000/svg">
<path d="M27.9654 7.87571C27.5807 7.16053 27.0761 6.54375 26.3912 6.09598C25.1551 5.28621 23.7942 5.1235 22.3727 5.38964C21.0962 5.62803 20.0607 6.29653 19.2358 7.29171C18.1535 8.59844 17.6704 10.1246 17.6326 11.8022C17.6175 12.4871 17.6768 13.1695 17.7978 13.8468C18.0034 14.9946 18.3806 16.0806 19.0604 17.0443C19.7869 18.076 20.7493 18.7786 21.9753 19.1091C22.6199 19.2819 23.2783 19.3184 23.943 19.2856C24.5283 19.2541 25.0996 19.1482 25.6521 18.959C26.6397 18.6184 27.4735 18.042 28.1962 17.3003C28.3387 17.1527 28.4724 16.9951 28.6137 16.8412C28.1193 16.4161 27.6387 16.0062 27.1606 15.5925C27.1026 15.5433 27.066 15.5483 27.0232 15.6026C26.9677 15.6694 26.9122 15.7375 26.8516 15.7993C25.9397 16.7605 24.8322 17.27 23.499 17.2852C22.6174 17.2953 21.9135 16.9434 21.3586 16.2774C20.8881 15.7161 20.6156 15.0552 20.4466 14.3513C20.3344 13.8834 20.2688 13.4079 20.2726 12.8958C23.1408 12.8958 25.9927 12.8958 28.8483 12.8958C28.9088 12.2853 28.9051 11.6887 28.8533 11.0921C28.7562 9.96193 28.504 8.88098 27.9654 7.87571ZM26.5085 11.2043C24.4311 11.2043 22.3664 11.2043 20.2713 11.2043C20.3104 10.8625 20.3306 10.5245 20.3886 10.1965C20.5273 9.40569 20.825 8.68169 21.3523 8.06364C22.1835 7.08738 23.5558 6.78592 24.7023 7.34469C25.3267 7.64993 25.753 8.15446 26.0469 8.77124C26.4051 9.52173 26.5325 10.3176 26.5174 11.1425C26.5174 11.1589 26.5111 11.1791 26.5085 11.2043ZM45.8774 17.2221C45.8774 17.6724 45.8749 18.1303 45.8799 18.5843C45.8799 18.6777 45.8497 18.7168 45.7614 18.7546C45.0563 19.0372 44.3247 19.1784 43.5692 19.1948C43.1618 19.2062 42.743 19.2276 42.3369 19.1734C41.5057 19.0674 40.9179 18.5843 40.5231 17.8603C40.1964 17.2663 40.0652 16.623 40.0652 15.9507C40.0627 13.1304 40.0627 10.3113 40.0627 7.49479C40.0627 7.43046 40.0627 7.36739 40.0627 7.29297C39.3501 7.29297 38.6513 7.29297 37.9336 7.29297C37.9336 7.02179 37.9298 6.76574 37.9374 6.50843C37.9374 6.47059 37.9904 6.42897 38.0282 6.40248C38.4394 6.09724 38.8821 5.82606 39.263 5.48424C40.0741 4.75267 40.7716 3.92272 41.2988 2.9578C41.3972 2.7787 41.483 2.5958 41.5814 2.41544C41.6003 2.3839 41.6356 2.34228 41.6633 2.34228C41.9459 2.33597 42.2246 2.33723 42.5223 2.33723C42.5223 3.41945 42.5223 4.48905 42.5223 5.57505C43.5528 5.57505 44.577 5.57505 45.6025 5.57505C45.6025 6.15147 45.6025 6.71024 45.6025 7.28414C44.5795 7.28414 43.5578 7.28414 42.5248 7.28414C42.5248 7.34343 42.5248 7.38883 42.5248 7.43424C42.5248 10.0477 42.5198 12.6637 42.5299 15.2772C42.5299 15.6026 42.5816 15.9343 42.6686 16.2471C42.8351 16.8286 43.2539 17.149 43.8454 17.2473C44.4786 17.3508 45.0992 17.2915 45.7122 17.1338C45.7601 17.1199 45.8093 17.1099 45.8661 17.0972C45.8736 17.149 45.8774 17.1868 45.8774 17.2221ZM52.4022 17.4832C52.4022 17.8969 52.3985 18.3081 52.4048 18.7193C52.4048 18.8051 52.3783 18.848 52.2887 18.8719C51.6518 19.0763 51.0034 19.21 50.3324 19.2415C49.8632 19.2667 49.4091 19.2264 48.974 19.0397C48.2664 18.7294 47.8199 18.1795 47.56 17.4655C47.4238 17.0808 47.3645 16.6898 47.3645 16.2812C47.367 10.918 47.3645 5.55487 47.3645 0.191722C47.3645 0.131178 47.3645 0.0706341 47.3645 0C48.192 0 49.0156 0 49.8556 0C49.8556 0.0794634 49.8556 0.143791 49.8556 0.20938C49.8556 5.35936 49.8544 10.5106 49.8594 15.6593C49.8607 15.9633 49.9023 16.2686 49.9629 16.5662C50.0499 17.0089 50.316 17.2839 50.7701 17.3962C51.2671 17.5147 51.7501 17.4933 52.2408 17.4012C52.2862 17.3937 52.3304 17.3823 52.3884 17.3735C52.3934 17.4138 52.4022 17.4504 52.4022 17.4832ZM65.1378 5.30134C64.3861 5.30134 63.7933 5.89417 63.7933 6.64465C63.7933 7.41154 64.3773 7.99931 65.1404 7.99931C65.8959 7.99931 66.49 7.40775 66.49 6.65727C66.4938 5.89921 65.8984 5.30134 65.1378 5.30134ZM65.1378 7.76471C64.5248 7.76471 64.0291 7.26522 64.0291 6.6497C64.0291 6.03922 64.5299 5.53847 65.1429 5.53847C65.7471 5.53847 66.2566 6.04805 66.2554 6.656C66.2541 7.26522 65.7521 7.76471 65.1378 7.76471ZM62.4109 7.56037C61.876 6.69385 61.1495 6.04174 60.1985 5.6583C59.3534 5.31774 58.4717 5.22062 57.5699 5.30386C56.3338 5.41738 55.2617 5.91056 54.3598 6.76069C53.2978 7.76471 52.6797 9.01216 52.3972 10.4349C52.1664 11.6105 52.2307 12.7797 52.4426 13.9528C52.6482 15.0791 53.0392 16.1336 53.7077 17.0783C54.2274 17.8061 54.8795 18.3901 55.6893 18.7735C56.9859 19.3853 58.3431 19.4282 59.7154 19.1166C61.0171 18.8253 62.0753 18.1088 62.9721 17.1426C63.0604 17.0443 63.1424 16.9408 63.2332 16.8349C62.7211 16.3922 62.2191 15.9671 61.7234 15.5433C61.6969 15.5635 61.6856 15.5698 61.6755 15.5799C61.6566 15.6 61.6389 15.6177 61.62 15.6417C61.0448 16.3051 60.3511 16.7996 59.5085 17.0682C58.8703 17.27 58.2157 17.3571 57.5522 17.2385C56.7299 17.0859 56.1459 16.5851 55.7082 15.899C55.2491 15.175 55.022 14.3652 54.9312 13.5201C54.9085 13.3221 54.9035 13.1203 54.8871 12.8945C57.7641 12.8945 60.6198 12.8945 63.4792 12.8945C63.5271 12.2399 63.5322 11.6067 63.4704 10.976C63.3518 9.76391 63.0579 8.60601 62.4109 7.56037ZM54.9072 11.2043C54.9337 10.9155 54.9501 10.638 54.9905 10.3618C55.1166 9.51669 55.4042 8.73845 55.963 8.0813C56.5457 7.3964 57.2924 7.03945 58.1968 7.07098C59.2979 7.10756 60.0862 7.66506 60.6008 8.62241C60.9553 9.28586 61.1142 10.0036 61.1382 10.7528C61.1407 10.8966 61.1382 11.0442 61.1382 11.1993C59.0557 11.2043 56.996 11.2043 54.9072 11.2043ZM65.404 6.75313C65.4481 6.73421 65.4872 6.72159 65.5238 6.70267C65.6815 6.61564 65.7609 6.45419 65.7332 6.28391C65.7067 6.11868 65.5982 5.98246 65.4254 5.96984C65.1593 5.95219 64.8919 5.96606 64.6232 5.96606C64.6232 6.43654 64.6232 6.91584 64.6232 7.3964C64.7039 7.3964 64.7784 7.3964 64.8641 7.3964C64.8641 7.19333 64.8641 6.99656 64.8641 6.80106C65.1025 6.77457 65.1769 6.80736 65.2955 6.98899C65.3422 7.05963 65.3838 7.13152 65.4242 7.20342C65.5515 7.42793 65.5515 7.42794 65.8379 7.38631C65.766 7.27405 65.7042 7.16432 65.6297 7.05837C65.5591 6.95368 65.4796 6.85655 65.404 6.75313ZM65.2741 6.56267C65.1429 6.57528 65.0092 6.56519 64.8704 6.56519C64.8704 6.4277 64.8704 6.29905 64.8704 6.14643C65.0092 6.15274 65.1517 6.154 65.2917 6.16787C65.4052 6.17923 65.4759 6.2486 65.4759 6.36968C65.4708 6.49329 65.3825 6.55258 65.2741 6.56267ZM37.255 17.2322C37.255 17.68 37.2525 18.1353 37.2575 18.5818C37.2588 18.6752 37.2285 18.7168 37.1402 18.7521C36.4352 19.0296 35.7036 19.1759 34.9493 19.1973C34.5835 19.2062 34.2178 19.2238 33.8532 19.1948C32.9653 19.1166 32.3296 18.6436 31.9032 17.8793C31.6043 17.3445 31.4555 16.7592 31.4454 16.1525C31.4277 15.1989 31.429 14.2454 31.429 13.288C31.4264 11.3532 31.429 9.412 31.429 7.47586C31.429 7.42037 31.429 7.36613 31.429 7.29423C30.7188 7.29423 30.0163 7.29423 29.3011 7.29423C29.3011 7.02305 29.2973 6.76952 29.3049 6.51726C29.3049 6.47942 29.3579 6.4378 29.3945 6.41005C29.8119 6.09724 30.2559 5.81344 30.6457 5.47162C31.4618 4.75141 32.1492 3.91641 32.6777 2.95907C32.7761 2.78122 32.8644 2.59707 32.964 2.41922C32.9829 2.38643 33.0271 2.3448 33.0611 2.34354C33.3386 2.33723 33.6148 2.33976 33.9037 2.33976C33.9037 3.42197 33.9037 4.49031 33.9037 5.57253C34.9291 5.57253 35.942 5.57253 36.9649 5.57253C36.9649 6.15021 36.9649 6.7115 36.9649 7.28919C35.9445 7.28919 34.9367 7.28919 33.9062 7.28919C33.9062 7.34469 33.9062 7.39388 33.9062 7.44055C33.9062 10.0931 33.9049 12.7444 33.9075 15.3982C33.9075 15.7312 33.9554 16.0592 34.0828 16.372C34.2985 16.8916 34.6945 17.1628 35.2394 17.2486C35.8524 17.3445 36.4553 17.2902 37.0532 17.1401C37.115 17.1225 37.1793 17.1136 37.25 17.096C37.2512 17.1502 37.255 17.1944 37.255 17.2322ZM3.24595 2.76861C3.24848 3.6427 2.57745 4.33643 1.71849 4.344C0.857007 4.34904 0.15445 3.66162 0.126701 2.83293C0.100213 1.96514 0.804031 1.23231 1.6693 1.22727C2.55223 1.22222 3.24343 1.90082 3.24595 2.76861ZM8.19791 16.8273C11.2301 16.8273 14.2497 16.8273 17.2744 16.8273C17.2744 17.569 17.2744 18.2955 17.2744 19.0245C13.1045 19.0245 8.94335 19.0245 4.76459 19.0245C4.76459 18.9703 4.76459 18.9211 4.76459 18.8694C4.76459 18.2652 4.76206 17.6535 4.76837 17.0506C4.76837 16.9698 4.79612 16.874 4.84153 16.8071C6.41818 14.4321 7.99988 12.0595 9.57906 9.68696C10.9854 7.57677 12.3905 5.46406 13.7944 3.35134C13.8171 3.31854 13.8385 3.28323 13.8751 3.22268C11.1116 3.22268 8.36819 3.22268 5.6185 3.22268C5.6185 2.50373 5.6185 1.80495 5.6185 1.09735C9.42896 1.09735 13.2369 1.09735 17.06 1.09735C17.06 1.15285 17.06 1.20204 17.06 1.25249C17.06 1.8264 17.0625 2.40156 17.0562 2.97672C17.0549 3.07511 17.0247 3.18737 16.9717 3.26935C16.3271 4.27589 15.6763 5.27612 15.028 6.27761C13.9445 7.95138 12.861 9.62516 11.7763 11.2977C11.0245 12.4606 10.2715 13.621 9.51978 14.7814C9.08336 15.4575 8.64568 16.1349 8.19791 16.8273ZM0.462213 5.96101C1.27955 5.96101 2.08932 5.96101 2.90666 5.96101C2.90666 10.3138 2.90666 14.6616 2.90666 19.0245C2.08806 19.0245 1.27829 19.0245 0.462213 19.0245C0.462213 14.6692 0.462213 10.3164 0.462213 5.96101Z" fill="#303030"/>
</svg>
