<svg width="103" height="105" viewBox="0 0 103 105" fill="none" xmlns="http://www.w3.org/2000/svg">
<path fill-rule="evenodd" clip-rule="evenodd" d="M58.4261 81.5499L53.7102 99.2869C53.5059 100.053 53.8231 100.863 54.4899 101.284C55.1567 101.705 56.0189 101.638 56.614 101.12L63.3015 95.2852L66.1981 103.706C66.4544 104.448 67.1571 104.939 67.9368 104.921C68.7147 104.901 69.394 104.378 69.6127 103.623L72.6114 93.315L75.5725 103.617C75.7894 104.372 76.4669 104.899 77.2484 104.919C78.0282 104.941 78.7326 104.45 78.9889 103.706L81.8855 95.2852L88.573 101.12C89.1681 101.638 90.0303 101.705 90.6971 101.284C91.3638 100.863 91.6811 100.053 91.4768 99.2869L86.7609 81.5499C90.2005 77.9726 92.3192 73.0986 92.3192 67.728C92.3192 56.7594 83.4807 47.8548 72.5935 47.8548C61.7063 47.8548 52.8678 56.7594 52.8678 67.728C52.8678 73.0986 54.9864 77.9726 58.4261 81.5499ZM61.4535 84.1251L58.6842 94.5357L62.9556 90.8103C63.4055 90.4184 64.0185 90.2757 64.5939 90.4311C65.1674 90.5864 65.6281 91.018 65.8235 91.585L67.7503 97.1849L70.568 87.4966C67.209 87.1516 64.0992 85.9544 61.4535 84.1251ZM83.7335 84.1251C81.1022 85.9454 78.0084 87.139 74.6709 87.4911L77.4474 97.156L79.3635 91.585C79.5589 91.018 80.0195 90.5864 80.5931 90.4311C81.1685 90.2757 81.7815 90.4184 82.2314 90.8103L86.5028 94.5357L83.7335 84.1251ZM0 55.981V83.0686C0 84.5061 0.566408 85.8839 1.57555 86.8988C2.58289 87.9155 3.95052 88.4862 5.3773 88.4862C16.9976 88.4862 52.8767 88.4862 52.8767 88.4862C53.8662 88.4862 54.6692 87.6772 54.6692 86.6803C54.6692 85.6835 53.8662 84.8745 52.8767 84.8745C52.8767 84.8745 16.9976 84.8745 5.3773 84.8745C4.9023 84.8745 4.44523 84.6849 4.11005 84.3454C3.77307 84.0077 3.58486 83.5472 3.58486 83.0686V55.981C3.58486 54.9842 2.78185 54.1752 1.79243 54.1752C0.80301 54.1752 0 54.9842 0 55.981ZM0 5.41752V48.7577C0 49.7545 0.80301 50.5635 1.79243 50.5635C2.78185 50.5635 3.58486 49.7545 3.58486 48.7577V16.2526H57.3578C58.3472 16.2526 59.1503 15.4435 59.1503 14.4467C59.1503 13.4499 58.3472 12.6409 57.3578 12.6409H3.58486V5.41752C3.58486 4.4207 4.38787 3.61168 5.3773 3.61168H97.6875C98.677 3.61168 99.48 4.4207 99.48 5.41752V12.6409H64.5275C63.5381 12.6409 62.7351 13.4499 62.7351 14.4467C62.7351 15.4435 63.5381 16.2526 64.5275 16.2526H99.48V83.0686C99.48 84.0655 98.677 84.8745 97.6875 84.8745H93.2065C92.217 84.8745 91.414 85.6835 91.414 86.6803C91.414 87.6772 92.217 88.4862 93.2065 88.4862H97.6875C100.658 88.4862 103.065 86.0609 103.065 83.0686V5.41752C103.065 2.42524 100.658 0 97.6875 0H5.3773C2.40724 0 0 2.42524 0 5.41752ZM72.5935 51.4664C81.5019 51.4664 88.7343 58.753 88.7343 67.728C88.7343 76.7031 81.5019 83.9896 72.5935 83.9896C63.6851 83.9896 56.4526 76.7031 56.4526 67.728C56.4526 58.753 63.6851 51.4664 72.5935 51.4664ZM46.6032 75.8453V72.2336C46.6032 69.2413 44.196 66.8161 41.2259 66.8161H16.1319C13.1618 66.8161 10.7546 69.2413 10.7546 72.2336V75.8453C10.7546 78.8376 13.1618 81.2628 16.1319 81.2628H41.2259C44.196 81.2628 46.6032 78.8376 46.6032 75.8453ZM74.1601 53.9459C73.8446 53.3734 73.2441 53.0177 72.5935 53.0177C71.9428 53.0177 71.3424 53.3734 71.0269 53.9459L67.4797 60.3728L60.3153 61.7868C59.6772 61.9132 59.1574 62.3773 58.9567 63.0003C58.7541 63.6252 58.9047 64.3078 59.3474 64.7881L64.3196 70.1731L63.4395 77.4742C63.3607 78.1243 63.6385 78.7671 64.1655 79.1536C64.6907 79.5382 65.3843 79.605 65.974 79.3288L72.5935 76.2299L79.2129 79.3288C79.8027 79.605 80.4963 79.5382 81.0215 79.1536C81.5485 78.7671 81.8263 78.1243 81.7474 77.4742L80.8674 70.1731L85.8396 64.7881C86.2823 64.3078 86.4329 63.6252 86.2303 63.0003C86.0296 62.3773 85.5098 61.9132 84.8717 61.7868L77.7073 60.3728L74.1601 53.9459ZM43.0184 72.2336V75.8453C43.0184 76.8421 42.2154 77.6511 41.2259 77.6511H16.1319C15.1425 77.6511 14.3395 76.8421 14.3395 75.8453V72.2336C14.3395 71.2368 15.1425 70.4278 16.1319 70.4278H41.2259C42.2154 70.4278 43.0184 71.2368 43.0184 72.2336ZM72.5935 58.5399L74.9792 62.8631C75.2355 63.3272 75.6836 63.6541 76.2017 63.757L81.0197 64.7069L77.675 68.3294C77.3165 68.7176 77.1463 69.2486 77.209 69.7759L77.8005 74.6859L73.3481 72.602C72.8695 72.3781 72.3175 72.3781 71.8389 72.602L67.3865 74.6859L67.978 69.7759C68.0407 69.2486 67.8704 68.7176 67.5119 68.3294L64.1673 64.7069L68.9853 63.757C69.5033 63.6541 69.9514 63.3272 70.2078 62.8631L72.5935 58.5399ZM12.547 61.3986H45.707C46.6964 61.3986 47.4994 60.5895 47.4994 59.5927C47.4994 58.5959 46.6964 57.7869 45.707 57.7869H12.547C11.5576 57.7869 10.7546 58.5959 10.7546 59.5927C10.7546 60.5895 11.5576 61.3986 12.547 61.3986ZM12.547 54.1752H50.1881C51.1775 54.1752 51.9805 53.3662 51.9805 52.3694C51.9805 51.3725 51.1775 50.5635 50.1881 50.5635H12.547C11.5576 50.5635 10.7546 51.3725 10.7546 52.3694C10.7546 53.3662 11.5576 54.1752 12.547 54.1752ZM12.547 46.9518H53.773C54.7624 46.9518 55.5654 46.1428 55.5654 45.146C55.5654 44.1492 54.7624 43.3402 53.773 43.3402H12.547C11.5576 43.3402 10.7546 44.1492 10.7546 45.146C10.7546 46.1428 11.5576 46.9518 12.547 46.9518ZM12.547 39.7285H89.6216C90.611 39.7285 91.414 38.9195 91.414 37.9226C91.414 36.9258 90.611 36.1168 89.6216 36.1168H12.547C11.5576 36.1168 10.7546 36.9258 10.7546 37.9226C10.7546 38.9195 11.5576 39.7285 12.547 39.7285ZM12.547 32.5051H89.6216C90.611 32.5051 91.414 31.6961 91.414 30.6993C91.414 29.7025 90.611 28.8934 89.6216 28.8934H12.547C11.5576 28.8934 10.7546 29.7025 10.7546 30.6993C10.7546 31.6961 11.5576 32.5051 12.547 32.5051ZM28.6789 25.2818H74.3859C75.3754 25.2818 76.1784 24.4727 76.1784 23.4759C76.1784 22.4791 75.3754 21.6701 74.3859 21.6701H28.6789C27.6895 21.6701 26.8865 22.4791 26.8865 23.4759C26.8865 24.4727 27.6895 25.2818 28.6789 25.2818ZM8.96216 6.32044C9.95158 6.32044 10.7546 7.12946 10.7546 8.12628C10.7546 9.1231 9.95158 9.93212 8.96216 9.93212C7.97274 9.93212 7.16973 9.1231 7.16973 8.12628C7.16973 7.12946 7.97274 6.32044 8.96216 6.32044ZM16.1319 6.32044C17.1213 6.32044 17.9243 7.12946 17.9243 8.12628C17.9243 9.1231 17.1213 9.93212 16.1319 9.93212C15.1425 9.93212 14.3395 9.1231 14.3395 8.12628C14.3395 7.12946 15.1425 6.32044 16.1319 6.32044ZM23.3016 6.32044C24.291 6.32044 25.094 7.12946 25.094 8.12628C25.094 9.1231 24.291 9.93212 23.3016 9.93212C22.3122 9.93212 21.5092 9.1231 21.5092 8.12628C21.5092 7.12946 22.3122 6.32044 23.3016 6.32044Z" fill="white"/>
</svg>
