<svg width="156" height="175" viewBox="0 0 156 175" fill="none" xmlns="http://www.w3.org/2000/svg">
<path d="M52.0279 28.3731C51.7301 28.3731 51.4287 28.2988 51.1486 28.1395C50.3013 27.6547 50.0035 26.5718 50.4892 25.7224C56.4916 15.254 65.0965 6.47021 75.3783 0.312335C75.9385 -0.0238707 76.6405 -0.0238707 77.2042 0.312335C85.0503 5.01213 91.8185 11.1205 97.3175 18.4639C97.9061 19.246 97.743 20.3573 96.9595 20.9412C96.1759 21.5287 95.0662 21.3659 94.4776 20.5838C89.4679 13.895 83.352 8.28572 76.2895 3.90443C66.9295 9.71901 59.0905 17.8516 53.5666 27.4848C53.2405 28.0546 52.6413 28.3731 52.0279 28.3731Z" fill="white"/>
<path d="M107.609 103.195C107.042 103.195 106.496 102.922 106.155 102.441C95.3064 86.986 82.1846 75.7603 64.858 67.1145C56.6716 63.027 49.141 57.9485 42.4756 52.0171C42.0324 51.6207 41.8126 51.0297 41.9012 50.4387C42.6245 45.5124 43.8689 40.6711 45.5991 36.0456C45.8154 35.4652 46.3188 35.044 46.9251 34.9273C47.5349 34.8175 48.1589 35.0193 48.5702 35.4758C56.4836 44.1818 66.0777 51.3801 77.0792 56.8691C90.0272 63.3313 100.766 71.2835 109.917 81.175C110.243 81.5253 110.41 81.9925 110.385 82.4703L109.378 101.517C109.339 102.271 108.822 102.919 108.095 103.124C107.939 103.173 107.772 103.195 107.609 103.195ZM45.5566 50.0105C51.8107 55.4641 58.8343 60.1497 66.4464 63.9471C82.7732 72.0974 95.4872 82.4703 106.106 96.3644L106.811 83.0294C98.0683 73.7077 87.8184 66.1802 75.4979 60.033C65.0211 54.8023 55.7746 48.0747 47.971 40.0057C46.9109 43.2651 46.1026 46.6166 45.5566 50.0105Z" fill="white"/>
<path d="M104.493 157.72C103.801 157.72 103.163 157.317 102.876 156.676C89.3146 126.478 72.6439 108.164 47.1308 95.4302C46.1132 94.9206 45.1524 94.3968 44.1916 93.8695L43.6172 93.5545C43.0783 93.2608 42.7309 92.7087 42.699 92.0965L41.9438 77.7989C41.9083 77.1158 42.27 76.4717 42.8727 76.1497C43.4719 75.8276 44.2093 75.8736 44.766 76.2806C49.3538 79.6533 54.2643 82.6473 59.3555 85.1883C80.0823 95.5328 95.4021 109.88 107.567 130.335C107.744 130.636 107.829 130.983 107.811 131.333L106.772 151.032C106.68 152.755 106.471 154.468 106.255 156.177C106.156 156.966 105.542 157.589 104.759 157.706C104.666 157.713 104.578 157.72 104.493 157.72ZM46.1877 90.9215C47.0138 91.3745 47.8434 91.824 48.7156 92.2592C73.2892 104.522 89.8819 121.76 103.312 149.251L104.237 131.68C92.4807 112.074 77.6997 98.2968 57.7672 88.3486C53.5942 86.2677 49.5417 83.8895 45.6772 81.2565L46.1877 90.9215Z" fill="white"/>
<path d="M84.8435 173.472C84.2656 173.472 83.7018 173.193 83.3615 172.676C73.303 157.444 61.4009 146.264 45.9108 137.498C45.3861 137.201 45.0458 136.656 45.0138 136.051L44.3225 122.896C44.2906 122.249 44.6132 121.637 45.1663 121.293C45.7194 120.957 46.4143 120.946 46.978 121.268C48.6692 122.242 50.4207 123.19 52.2643 124.11C72.2784 134.097 87.148 147.701 99.0714 166.918C99.5855 167.75 99.3302 168.84 98.497 169.353C97.6674 169.87 96.5754 169.611 96.0578 168.78C84.4996 150.143 70.0802 136.957 50.683 127.274C49.7825 126.825 48.9032 126.368 48.0381 125.905L48.5097 134.901C64.0955 143.883 76.1288 155.289 86.3255 170.726C86.8644 171.544 86.6375 172.641 85.822 173.179C85.5171 173.377 85.1768 173.472 84.8435 173.472Z" fill="white"/>
<path d="M47.6665 82.2332C47.2694 82.2332 46.8652 82.0987 46.5355 81.8227C45.7838 81.1998 45.681 80.0815 46.3086 79.3312C51.0878 73.5945 56.3458 68.0736 61.9299 62.9279C62.6496 62.2661 63.7735 62.3086 64.4365 63.027C65.103 63.7454 65.0569 64.8673 64.3372 65.5291C58.863 70.5721 53.715 75.9762 49.035 81.5962C48.6805 82.0173 48.177 82.2332 47.6665 82.2332Z" fill="white"/>
<path d="M72.2893 58.1149C71.7716 58.1149 71.2575 57.892 70.9065 57.4567C70.2932 56.6958 70.4102 55.581 71.1725 54.9687C74.1223 52.5941 77.2245 50.2442 80.3942 47.9827C87.9779 42.5751 95.0688 36.3536 101.465 29.495C102.131 28.7836 103.259 28.7447 103.971 29.4065C104.688 30.0718 104.727 31.1901 104.06 31.9086C97.501 38.937 90.2328 45.3143 82.4541 50.8599C79.3447 53.0789 76.2956 55.3863 73.399 57.7185C73.0728 57.9875 72.6757 58.1149 72.2893 58.1149Z" fill="white"/>
<path d="M43.341 72.4124C42.9474 72.4124 42.5468 72.2815 42.217 72.009C41.4619 71.3897 41.3519 70.2749 41.9724 69.5175C45.3654 65.391 49.0137 61.3636 52.825 57.538C53.5164 56.8479 54.6403 56.8408 55.3317 57.5309C56.0266 58.2175 56.0301 59.3393 55.3388 60.033C51.6089 63.7808 48.0351 67.7268 44.713 71.7648C44.362 72.193 43.855 72.4124 43.341 72.4124Z" fill="white"/>
<path d="M62.9435 52.2614C62.4506 52.2614 61.9614 52.0561 61.6104 51.6597C60.9651 50.9236 61.0396 49.8053 61.7735 49.1612C66.4393 45.0807 71.4703 41.1135 76.7211 37.3692C81.8514 33.7134 86.7831 29.6577 91.3886 25.3189C92.1013 24.6536 93.2252 24.6819 93.8953 25.3932C94.5654 26.1046 94.5335 27.2229 93.8208 27.8953C89.0983 32.3438 84.0389 36.5022 78.7775 40.25C73.6188 43.9305 68.6836 47.8235 64.1064 51.8261C63.7766 52.1127 63.3618 52.2614 62.9435 52.2614Z" fill="white"/>
<path d="M43.0779 57.6726C42.6454 57.6726 42.2128 57.5168 41.8725 57.1983C41.1563 56.533 41.1138 55.4147 41.7803 54.6962C42.7659 53.6381 43.7693 52.5835 44.7975 51.5324C45.4853 50.8387 46.6057 50.8246 47.3041 51.5041C48.0061 52.1871 48.0203 53.309 47.336 54.0061C46.3291 55.036 45.3435 56.0694 44.3791 57.1028C44.0246 57.4814 43.553 57.6726 43.0779 57.6726Z" fill="white"/>
<path d="M55.0163 46.0257C54.527 46.0257 54.0413 45.8239 53.6903 45.4311C53.0415 44.6985 53.1053 43.5837 53.8392 42.9326C58.7887 38.5442 64.1458 34.2903 69.7583 30.2877C72.0132 28.681 74.2539 26.9752 76.4237 25.2269C77.186 24.6147 78.3028 24.7315 78.9162 25.4888C79.5331 26.2497 79.4161 27.3645 78.6538 27.9767C76.4308 29.771 74.1298 31.5193 71.8182 33.1649C66.305 37.0967 61.0471 41.2728 56.1934 45.5762C55.853 45.8806 55.4347 46.0257 55.0163 46.0257Z" fill="white"/>
<path d="M48.0706 39.3051C47.5636 39.3051 47.0637 39.0892 46.7127 38.6752C46.0816 37.9284 46.1809 36.8101 46.929 36.1802C50.7793 32.9455 54.885 29.771 59.1218 26.7487C59.8486 26.232 60.5648 25.7083 61.2703 25.1845C62.0539 24.597 63.1671 24.7669 63.7521 25.549C64.3371 26.3347 64.1741 27.4424 63.387 28.0263C62.6601 28.5642 61.9262 29.1022 61.1781 29.633C57.0158 32.6022 52.9881 35.7166 49.2087 38.8911C48.8754 39.1671 48.4712 39.3051 48.0706 39.3051Z" fill="white"/>
<path d="M44.7936 99.9423C44.4107 99.9423 44.0242 99.8185 43.7016 99.5672C42.9322 98.9656 42.7975 97.8508 43.4002 97.0828C44.5135 95.6637 45.6622 94.2516 46.8464 92.8502C47.4775 92.1034 48.5943 92.0044 49.3424 92.6308C50.094 93.2572 50.1898 94.3755 49.5622 95.1222C48.4064 96.4989 47.2825 97.8791 46.194 99.2664C45.8395 99.7088 45.3183 99.9423 44.7936 99.9423Z" fill="white"/>
<path d="M55.9375 87.1772C55.4944 87.1772 55.0512 87.0144 54.7073 86.6818C54.0017 86.0023 53.9804 84.8839 54.6612 84.1797C60.029 78.6234 65.9322 73.2795 72.2076 68.3001C72.9735 67.6879 74.0903 67.8153 74.7001 68.5833C75.3099 69.3512 75.1823 70.4625 74.4165 71.0712C68.2615 75.9586 62.4754 81.1963 57.2139 86.6393C56.8629 86.9967 56.402 87.1772 55.9375 87.1772Z" fill="white"/>
<path d="M83.2944 63.9932C82.752 63.9932 82.2131 63.7455 81.8692 63.2748C81.2842 62.4891 81.4508 61.3814 82.2379 60.801C90.6123 54.6219 98.3414 47.4483 105.212 39.4749C105.847 38.7353 106.971 38.6504 107.712 39.2874C108.453 39.9244 108.538 41.0427 107.9 41.7824C100.859 49.9539 92.931 57.308 84.3474 63.6428C84.0319 63.8799 83.6596 63.9932 83.2944 63.9932Z" fill="white"/>
<path d="M45.7022 117.206C45.3761 117.206 45.0463 117.117 44.7521 116.93C43.926 116.406 43.6813 115.312 44.2061 114.488C47.8543 108.755 51.8642 103.212 56.1223 98.0207C56.7392 97.2669 57.8561 97.1537 58.6183 97.773C59.3735 98.3923 59.487 99.5071 58.8665 100.264C54.7006 105.346 50.7758 110.772 47.1984 116.385C46.8616 116.915 46.2908 117.206 45.7022 117.206Z" fill="white"/>
<path d="M65.2374 92.1141C64.8014 92.1141 64.3617 91.9549 64.0214 91.6328C63.3087 90.964 63.2768 89.8421 63.9469 89.1308C69.0275 83.7515 74.6045 78.5633 80.5219 73.7113C81.2806 73.0884 82.3974 73.2017 83.0179 73.9555C83.6383 74.7093 83.532 75.8241 82.7733 76.447C76.9693 81.2069 71.5023 86.2925 66.5245 91.5621C66.177 91.9266 65.709 92.1141 65.2374 92.1141Z" fill="white"/>
<path d="M91.7714 68.9584C91.2112 68.9584 90.6723 68.7602 90.3638 68.332C89.793 67.5357 89.7221 66.6155 90.5163 66.0458C90.5163 66.0458 91.0304 65.6777 91.0339 65.6777C97.0116 61.4132 102.706 56.6285 107.96 51.4509C108.655 50.7643 109.775 50.7714 110.467 51.4686C111.154 52.1622 111.147 53.2841 110.449 53.9707C105.063 59.2792 99.2239 64.1878 93.0903 68.5584C92.7251 68.8203 92.2429 68.9584 91.7714 68.9584Z" fill="white"/>
<path d="M50.8754 127.168C50.5634 127.168 50.2443 127.087 49.9572 126.91C49.1204 126.4 48.8545 125.313 49.3651 124.478C53.8643 117.099 58.9094 110.064 64.3659 103.566C64.997 102.823 66.1138 102.717 66.8654 103.347C67.6135 103.977 67.7128 105.092 67.0853 105.842C61.7423 112.201 56.7999 119.092 52.3964 126.319C52.0596 126.864 51.4746 127.168 50.8754 127.168Z" fill="white"/>
<path d="M73.7859 97.5394C73.3428 97.5394 72.896 97.3731 72.5521 97.0404C71.8466 96.3609 71.8288 95.2391 72.5096 94.5383C77.4342 89.4634 82.8127 84.5619 88.496 79.9647C89.2583 79.3525 90.3716 79.4692 90.992 80.2266C91.6089 80.9875 91.4919 82.1023 90.7297 82.7181C85.1527 87.2232 79.8806 92.0292 75.0587 97.0015C74.7148 97.3625 74.2504 97.5394 73.7859 97.5394Z" fill="white"/>
<path d="M99.6496 75.5232C99.1 75.5232 98.5576 75.2684 98.2101 74.7906C97.6358 73.9979 97.8166 72.8902 98.6072 72.3204C101.943 69.9139 105.209 67.3304 108.318 64.6408C109.056 63.9967 110.176 64.0781 110.818 64.8177C111.459 65.5538 111.381 66.6722 110.64 67.3127C107.457 70.0731 104.106 72.7239 100.685 75.1905C100.369 75.4135 100.008 75.5232 99.6496 75.5232Z" fill="white"/>
<path d="M47.4603 150.533C47.1909 150.533 46.9179 150.472 46.6626 150.341C45.7904 149.899 45.4394 148.837 45.879 147.963C47.5064 144.746 49.2224 141.575 50.9845 138.532C51.4738 137.682 52.5587 137.392 53.406 137.884C54.2534 138.373 54.5441 139.455 54.0549 140.301C52.3247 143.288 50.6406 146.403 49.0416 149.559C48.7331 150.175 48.1056 150.533 47.4603 150.533Z" fill="white"/>
<path d="M58.6648 131.344C58.3244 131.344 57.9841 131.248 57.6791 131.043C56.8672 130.498 56.651 129.401 57.197 128.587C61.6607 121.948 66.6243 115.585 71.9496 109.685C72.6055 108.953 73.7223 108.9 74.4527 109.554C75.1795 110.209 75.2398 111.327 74.5839 112.053C69.3721 117.832 64.5112 124.057 60.1397 130.562C59.7993 131.068 59.2356 131.344 58.6648 131.344Z" fill="white"/>
<path d="M81.8583 103.782C81.3938 103.782 80.9294 103.602 80.5819 103.237C79.9048 102.533 79.926 101.411 80.6316 100.735C85.4676 96.0955 90.729 91.5939 96.2635 87.3613C97.047 86.7703 98.1568 86.9189 98.7488 87.6904C99.3445 88.4654 99.1956 89.5767 98.4191 90.1712C92.9875 94.326 87.8289 98.7392 83.085 103.287C82.7447 103.616 82.3015 103.782 81.8583 103.782Z" fill="white"/>
<path d="M49.8974 167.191C49.6598 167.191 49.4152 167.141 49.1812 167.042C48.2878 166.646 47.88 165.602 48.2771 164.706C51.5531 157.313 55.0099 150.564 58.8568 144.081C59.3531 143.242 60.4487 142.963 61.2854 143.458C62.1292 143.957 62.4058 145.04 61.9094 145.882C58.1406 152.245 54.7405 158.874 51.5248 166.139C51.2269 166.798 50.5781 167.191 49.8974 167.191Z" fill="white"/>
<path d="M66.8789 136.596C66.5314 136.596 66.1804 136.493 65.8755 136.284C65.0671 135.729 64.865 134.628 65.4217 133.825C69.5592 127.837 74.1293 122.061 79.0114 116.661C79.6673 115.932 80.7912 115.879 81.5145 116.533C82.2413 117.188 82.298 118.306 81.6421 119.032C76.8628 124.319 72.3885 129.974 68.3396 135.835C67.9957 136.327 67.439 136.596 66.8789 136.596Z" fill="white"/>
<path d="M89.1127 110.588C88.6447 110.588 88.1802 110.404 87.8328 110.043C87.1556 109.335 87.1804 108.217 87.8895 107.541C92.5057 103.135 97.487 98.8665 102.695 94.8569C103.475 94.2623 104.585 94.4039 105.184 95.1754C105.78 95.9504 105.638 97.0617 104.865 97.6597C99.7561 101.595 94.8705 105.778 90.3429 110.099C89.9919 110.425 89.5523 110.588 89.1127 110.588Z" fill="white"/>
<path d="M57.2424 169.933C56.98 169.933 56.7141 169.873 56.4588 169.753C55.5796 169.321 55.2179 168.259 55.6505 167.382C58.6996 161.203 62.0429 155.254 65.5884 149.701C66.1131 148.876 67.2158 148.643 68.0348 149.159C68.8609 149.683 69.1055 150.78 68.5772 151.601C65.1027 157.048 61.8231 162.884 58.8308 168.946C58.5258 169.569 57.8983 169.933 57.2424 169.933Z" fill="white"/>
<path d="M74.1581 142.184C73.7893 142.184 73.4206 142.071 73.1015 141.834C72.3144 141.25 72.1549 140.138 72.7399 139.356C76.6611 134.108 80.9405 129.033 85.4645 124.262C86.1381 123.551 87.262 123.526 87.9711 124.192C88.6837 124.864 88.7121 125.982 88.042 126.694C83.6138 131.362 79.423 136.334 75.5833 141.469C75.2359 141.94 74.7005 142.184 74.1581 142.184Z" fill="white"/>
<path d="M95.9027 118.296C95.4205 118.296 94.9419 118.101 94.5909 117.715C93.9314 116.993 93.9846 115.875 94.7079 115.217C98.3526 111.904 102.228 108.655 106.231 105.569C107.007 104.968 108.117 105.116 108.716 105.888C109.315 106.659 109.173 107.771 108.397 108.369C104.469 111.398 100.664 114.583 97.0904 117.832C96.7572 118.144 96.3282 118.296 95.9027 118.296Z" fill="white"/>
<path d="M66.0039 173.472C65.7273 173.472 65.4508 173.409 65.192 173.274C64.3233 172.825 63.983 171.756 64.4332 170.889C66.9682 166.005 69.7089 161.252 72.5736 156.758C73.1019 155.933 74.1974 155.696 75.02 156.216C75.8461 156.74 76.0871 157.837 75.5624 158.658C72.7509 163.064 70.0634 167.725 67.578 172.517C67.266 173.125 66.6456 173.472 66.0039 173.472Z" fill="white"/>
<path d="M81.4114 148.883C81.0427 148.883 80.6705 148.767 80.3514 148.529C79.5678 147.942 79.4083 146.834 79.9968 146.052C83.4962 141.395 87.2969 136.854 91.2891 132.558C91.9556 131.84 93.076 131.797 93.7957 132.466C94.5119 133.131 94.5544 134.25 93.8879 134.968C89.9773 139.172 86.2581 143.617 82.8296 148.176C82.4857 148.639 81.9504 148.883 81.4114 148.883Z" fill="white"/>
<path d="M101.819 126.34C101.344 126.34 100.869 126.149 100.518 125.774C99.8517 125.055 99.8942 123.937 100.614 123.272C102.181 121.821 103.798 120.38 105.461 118.954C106.209 118.317 107.325 118.402 107.96 119.142C108.598 119.881 108.517 121 107.772 121.637C106.141 123.038 104.56 124.447 103.021 125.869C102.681 126.184 102.248 126.34 101.819 126.34Z" fill="white"/>
<path d="M75.6333 173.472C75.3213 173.472 75.0057 173.391 74.7186 173.218C73.8818 172.711 73.6124 171.625 74.1194 170.786C75.5234 168.472 76.9912 166.175 78.5264 163.889C79.0688 163.078 80.175 162.855 80.9869 163.407C81.7988 163.952 82.0151 165.05 81.4691 165.863C79.9623 168.1 78.5264 170.354 77.1507 172.619C76.821 173.168 76.2325 173.472 75.6333 173.472Z" fill="white"/>
<path d="M87.8075 155.972C87.4211 155.972 87.0346 155.848 86.7084 155.59C85.9426 154.985 85.8114 153.87 86.4213 153.105C89.6157 149.081 93.0442 145.153 96.6109 141.43C97.2881 140.726 98.412 140.698 99.1175 141.374C99.8266 142.046 99.8515 143.168 99.1743 143.876C95.6856 147.524 92.328 151.368 89.2009 155.303C88.8464 155.742 88.3287 155.972 87.8075 155.972Z" fill="white"/>
<path d="M93.9457 164.101C93.5663 164.101 93.1799 163.977 92.8572 163.726C92.0843 163.128 91.9496 162.013 92.5523 161.242C95.332 157.685 98.3066 154.185 101.384 150.84C102.051 150.119 103.171 150.076 103.891 150.734C104.61 151.396 104.66 152.514 103.997 153.236C100.983 156.51 98.0726 159.936 95.3497 163.418C94.9951 163.868 94.4739 164.101 93.9457 164.101Z" fill="white"/>
<path d="M30.1979 173.472C29.2193 173.472 28.4252 172.68 28.4252 171.703V88.5362H3.60698V171.703C3.60698 172.68 2.8128 173.472 1.83425 173.472C0.855705 173.472 0.0615234 172.68 0.0615234 171.703V86.7667C0.0615234 85.7899 0.855705 84.9972 1.83425 84.9972H30.1979C31.1764 84.9972 31.9706 85.7899 31.9706 86.7667V171.703C31.9706 172.68 31.1764 173.472 30.1979 173.472Z" fill="white"/>
<path d="M37.2894 116.848H30.1985C29.22 116.848 28.4258 116.055 28.4258 115.079C28.4258 114.102 29.22 113.309 30.1985 113.309H37.2894C38.268 113.309 39.0621 114.102 39.0621 115.079C39.0621 116.055 38.268 116.848 37.2894 116.848Z" fill="white"/>
<path d="M154.289 173.472C153.31 173.472 152.516 172.68 152.516 171.703V74.3802H120.607V171.703C120.607 172.68 119.813 173.472 118.834 173.472C117.856 173.472 117.062 172.68 117.062 171.703V72.6107C117.062 71.6339 117.856 70.8412 118.834 70.8412H154.289C155.267 70.8412 156.062 71.6339 156.062 72.6107V171.703C156.062 172.68 155.267 173.472 154.289 173.472Z" fill="white"/>
<path d="M118.834 134.543H111.743C110.765 134.543 109.971 133.751 109.971 132.774C109.971 131.797 110.765 131.004 111.743 131.004H118.834C119.813 131.004 120.607 131.797 120.607 132.774C120.607 133.751 119.813 134.543 118.834 134.543Z" fill="white"/>
<path d="M154.288 74.3801H118.834C118.118 74.3801 117.469 73.9483 117.196 73.2865C116.919 72.6247 117.072 71.8638 117.579 71.3578L124.67 64.2798C125.003 63.9506 125.453 63.7631 125.925 63.7631H147.198C147.669 63.7631 148.119 63.9506 148.453 64.2798L155.544 71.3578C156.051 71.8638 156.203 72.6247 155.926 73.2865C155.653 73.9483 155.005 74.3801 154.288 74.3801ZM123.113 70.8411H150.009L146.464 67.3021H126.659L123.113 70.8411Z" fill="white"/>
<path d="M147.197 67.3022H125.925C125.209 67.3022 124.56 66.8704 124.287 66.2086C124.01 65.5468 124.163 64.7859 124.67 64.2799L135.306 53.6628C135.997 52.9727 137.121 52.9727 137.813 53.6628L148.449 64.2799C148.956 64.7859 149.108 65.5468 148.832 66.2086C148.562 66.8704 147.914 67.3022 147.197 67.3022ZM130.204 63.7632H142.918L136.561 57.4177L130.204 63.7632Z" fill="white"/>
<path d="M136.562 56.6851C135.583 56.6851 134.789 55.8924 134.789 54.9156V40.7596C134.789 39.7828 135.583 38.9901 136.562 38.9901C137.54 38.9901 138.335 39.7828 138.335 40.7596V54.9156C138.335 55.8924 137.54 56.6851 136.562 56.6851Z" fill="white"/>
<path d="M23.1069 99.1532H8.92507C7.94653 99.1532 7.15234 98.3605 7.15234 97.3838C7.15234 96.407 7.94653 95.6143 8.92507 95.6143H23.1069C24.0854 95.6143 24.8796 96.407 24.8796 97.3838C24.8796 98.3605 24.0854 99.1532 23.1069 99.1532Z" fill="white"/>
<path d="M23.1069 109.77H8.92507C7.94653 109.77 7.15234 108.977 7.15234 108.001C7.15234 107.024 7.94653 106.231 8.92507 106.231H23.1069C24.0854 106.231 24.8796 107.024 24.8796 108.001C24.8796 108.977 24.0854 109.77 23.1069 109.77Z" fill="white"/>
<path d="M23.1069 123.926H8.92507C7.94653 123.926 7.15234 123.133 7.15234 122.157C7.15234 121.18 7.94653 120.387 8.92507 120.387H23.1069C24.0854 120.387 24.8796 121.18 24.8796 122.157C24.8796 123.133 24.0854 123.926 23.1069 123.926Z" fill="white"/>
<path d="M23.1069 138.082H8.92507C7.94653 138.082 7.15234 137.29 7.15234 136.313C7.15234 135.336 7.94653 134.543 8.92507 134.543H23.1069C24.0854 134.543 24.8796 135.336 24.8796 136.313C24.8796 137.29 24.0854 138.082 23.1069 138.082Z" fill="white"/>
<path d="M23.1069 152.238H8.92507C7.94653 152.238 7.15234 151.446 7.15234 150.469C7.15234 149.492 7.94653 148.699 8.92507 148.699H23.1069C24.0854 148.699 24.8796 149.492 24.8796 150.469C24.8796 151.446 24.0854 152.238 23.1069 152.238Z" fill="white"/>
<path d="M23.1069 166.394H8.92507C7.94653 166.394 7.15234 165.602 7.15234 164.625C7.15234 163.648 7.94653 162.855 8.92507 162.855H23.1069C24.0854 162.855 24.8796 163.648 24.8796 164.625C24.8796 165.602 24.0854 166.394 23.1069 166.394Z" fill="white"/>
<path d="M22.4715 174.022H2.71471C1.35149 174.022 0.245117 173.201 0.245117 172.191C0.245117 171.181 1.35149 170.36 2.71471 170.36H22.4715C23.8347 170.36 24.941 171.181 24.941 172.191C24.941 173.201 23.8347 174.022 22.4715 174.022Z" fill="white"/>
<path d="M152.601 174.022H127.367C125.626 174.022 124.213 173.201 124.213 172.191C124.213 171.181 125.626 170.36 127.367 170.36H152.601C154.342 170.36 155.755 171.181 155.755 172.191C155.755 173.201 154.342 174.022 152.601 174.022Z" fill="white"/>
<path d="M99.248 173.596H52.1057C48.8529 173.596 46.2129 172.748 46.2129 171.703C46.2129 170.658 48.8529 169.809 52.1057 169.809H99.248C102.501 169.809 105.141 170.658 105.141 171.703C105.141 172.748 102.501 173.596 99.248 173.596Z" fill="white"/>
<path d="M136.561 84.9971H125.925C124.947 84.9971 124.152 84.2044 124.152 83.2276C124.152 82.2509 124.947 81.4581 125.925 81.4581H136.561C137.54 81.4581 138.334 82.2509 138.334 83.2276C138.334 84.2044 137.54 84.9971 136.561 84.9971Z" fill="white"/>
<path d="M147.198 84.9971H143.653C142.674 84.9971 141.88 84.2044 141.88 83.2276C141.88 82.2509 142.674 81.4581 143.653 81.4581H147.198C148.177 81.4581 148.971 82.2509 148.971 83.2276C148.971 84.2044 148.177 84.9971 147.198 84.9971Z" fill="white"/>
<path d="M136.561 99.1532H125.925C124.947 99.1532 124.152 98.3605 124.152 97.3838C124.152 96.407 124.947 95.6143 125.925 95.6143H136.561C137.54 95.6143 138.334 96.407 138.334 97.3838C138.334 98.3605 137.54 99.1532 136.561 99.1532Z" fill="white"/>
<path d="M147.198 99.1532H143.653C142.674 99.1532 141.88 98.3605 141.88 97.3838C141.88 96.407 142.674 95.6143 143.653 95.6143H147.198C148.177 95.6143 148.971 96.407 148.971 97.3838C148.971 98.3605 148.177 99.1532 147.198 99.1532Z" fill="white"/>
<path d="M136.561 113.309H125.925C124.947 113.309 124.152 112.517 124.152 111.54C124.152 110.563 124.947 109.77 125.925 109.77H136.561C137.54 109.77 138.334 110.563 138.334 111.54C138.334 112.517 137.54 113.309 136.561 113.309Z" fill="white"/>
<path d="M147.198 113.309H143.653C142.674 113.309 141.88 112.517 141.88 111.54C141.88 110.563 142.674 109.77 143.653 109.77H147.198C148.177 109.77 148.971 110.563 148.971 111.54C148.971 112.517 148.177 113.309 147.198 113.309Z" fill="white"/>
<path d="M136.561 127.465H125.925C124.947 127.465 124.152 126.673 124.152 125.696C124.152 124.719 124.947 123.926 125.925 123.926H136.561C137.54 123.926 138.334 124.719 138.334 125.696C138.334 126.673 137.54 127.465 136.561 127.465Z" fill="white"/>
<path d="M147.198 127.465H143.653C142.674 127.465 141.88 126.673 141.88 125.696C141.88 124.719 142.674 123.926 143.653 123.926H147.198C148.177 123.926 148.971 124.719 148.971 125.696C148.971 126.673 148.177 127.465 147.198 127.465Z" fill="white"/>
<path d="M136.561 141.621H125.925C124.947 141.621 124.152 140.829 124.152 139.852C124.152 138.875 124.947 138.082 125.925 138.082H136.561C137.54 138.082 138.334 138.875 138.334 139.852C138.334 140.829 137.54 141.621 136.561 141.621Z" fill="white"/>
<path d="M147.198 141.621H143.653C142.674 141.621 141.88 140.829 141.88 139.852C141.88 138.875 142.674 138.082 143.653 138.082H147.198C148.177 138.082 148.971 138.875 148.971 139.852C148.971 140.829 148.177 141.621 147.198 141.621Z" fill="white"/>
<path d="M136.561 155.777H125.925C124.947 155.777 124.152 154.985 124.152 154.008C124.152 153.031 124.947 152.238 125.925 152.238H136.561C137.54 152.238 138.334 153.031 138.334 154.008C138.334 154.985 137.54 155.777 136.561 155.777Z" fill="white"/>
<path d="M147.198 155.777H143.653C142.674 155.777 141.88 154.985 141.88 154.008C141.88 153.031 142.674 152.238 143.653 152.238H147.198C148.177 152.238 148.971 153.031 148.971 154.008C148.971 154.985 148.177 155.777 147.198 155.777Z" fill="white"/>
<path d="M136.561 166.394H125.925C124.947 166.394 124.152 165.602 124.152 164.625C124.152 163.648 124.947 162.855 125.925 162.855H136.561C137.54 162.855 138.334 163.648 138.334 164.625C138.334 165.602 137.54 166.394 136.561 166.394Z" fill="white"/>
<path d="M147.198 166.394H143.653C142.674 166.394 141.88 165.602 141.88 164.625C141.88 163.648 142.674 162.855 143.653 162.855H147.198C148.177 162.855 148.971 163.648 148.971 164.625C148.971 165.602 148.177 166.394 147.198 166.394Z" fill="white"/>
<path d="M23.107 56.6851H1.83425C0.855705 56.6851 0.0615234 55.8924 0.0615234 54.9156C0.0615234 53.9389 0.855705 53.1461 1.83425 53.1461H23.107C24.0855 53.1461 24.8797 53.9389 24.8797 54.9156C24.8797 55.8924 24.0855 56.6851 23.107 56.6851Z" fill="white"/>
<path d="M101.107 173.472C100.965 173.472 100.82 173.455 100.674 173.419C99.7242 173.182 99.1463 172.223 99.3838 171.275L101.32 163.542C102.358 159.384 103 155.108 103.224 150.84L107.794 64.1843C108.453 51.7058 105.588 39.344 99.5115 28.3731H53.0625C46.982 39.344 44.1208 51.7058 44.7803 64.1843L49.3504 150.84C49.5737 155.112 50.2155 159.384 51.2543 163.542L53.1901 171.275C53.4277 172.223 52.8497 173.182 51.8996 173.419C50.9458 173.653 49.9886 173.08 49.751 172.131L47.8152 164.398C46.7161 160.021 46.0425 155.519 45.8085 151.024L41.2384 64.3719C40.5293 50.8706 43.7273 37.5073 50.4885 25.7259C50.804 25.1739 51.3926 24.8376 52.0272 24.8376H100.557C101.192 24.8376 101.781 25.1774 102.096 25.7259C108.857 37.5073 112.055 50.8706 111.346 64.3719L106.776 151.028C106.542 155.523 105.865 160.024 104.769 164.402L102.834 172.135C102.624 172.938 101.905 173.472 101.107 173.472Z" fill="white"/>
<path d="M136.561 17.756H115.288C114.31 17.756 113.516 16.9633 113.516 15.9865C113.516 15.0098 114.31 14.217 115.288 14.217H136.561C137.54 14.217 138.334 15.0098 138.334 15.9865C138.334 16.9633 137.54 17.756 136.561 17.756Z" fill="white"/>
</svg>
