<svg width="100" height="113" viewBox="0 0 100 113" fill="none" xmlns="http://www.w3.org/2000/svg">
<path d="M60.5222 60.2389L60.7563 56.4751C63.8142 57.5552 67.0187 58.1027 70.3199 58.1027C86.2594 58.1027 99.227 45.0704 99.227 29.0514C99.227 13.0323 86.2594 0 70.3199 0C54.9899 0 42.4111 12.0555 41.4713 27.2281H32.4888C28.2035 27.2281 24.2276 28.9565 21.2936 32.0953C18.3596 35.2341 16.8908 39.3299 17.1581 43.6281L18.191 60.2387C18.2104 67.4269 21.223 73.8568 25.9311 78.1044V81.0103L22.7421 85.8175L7.81444 89.9092C3.66875 91.0457 0.773438 94.8552 0.773438 99.1736V106.846C0.773438 109.996 3.32355 112.559 6.4581 112.559H72.2551C75.3896 112.559 77.9398 109.996 77.9398 106.846V99.1736C77.9398 94.855 75.0444 91.0455 70.899 89.9095L55.9711 85.8177L52.7821 81.0105V78.1046C57.4902 73.8568 60.5026 67.4271 60.5222 60.2389ZM44.51 93.8874L42.0444 91.4094L50.5784 84.2623L52.658 87.3974L46.8976 96.0815C46.8879 96.0958 46.8659 96.1291 46.8088 96.135C46.751 96.1405 46.7234 96.1119 46.7113 96.0997L44.51 93.8874ZM34.2027 93.8882L32.0021 96.0997C31.99 96.1119 31.9615 96.1398 31.9046 96.1347C31.8478 96.1291 31.8255 96.0956 31.8158 96.0812L26.0554 87.3972L28.1351 84.2621L36.6691 91.4092L34.2041 93.8865C34.2036 93.8872 34.2031 93.8877 34.2027 93.8882ZM39.3566 88.9134L29.6973 80.8238C32.595 82.4609 35.879 83.3859 39.3566 83.3859C42.8342 83.3859 46.1182 82.4609 49.0159 80.824L39.3566 88.9134ZM39.3566 102.835C39.5088 102.835 39.6587 102.827 39.808 102.815L41.0523 108.912H37.6609L38.9054 102.815C39.0545 102.827 39.2044 102.835 39.3566 102.835ZM41.4128 97.1215C41.4128 98.2609 40.4904 99.1879 39.3566 99.1879C38.2228 99.1879 37.3004 98.2609 37.3004 97.1215V95.932L39.3566 93.8655L41.4128 95.932V97.1215ZM70.3199 3.64661C84.2587 3.64661 95.5985 15.0433 95.5985 29.0514C95.5985 43.0595 84.2587 54.4561 70.3199 54.4561C67.0828 54.4561 63.9531 53.8544 60.9929 52.6697L61.5553 43.6281C61.579 43.2484 61.5841 42.8708 61.5807 42.4947C62.5169 42.9778 63.5442 43.3816 64.6352 43.6976V44.6098C64.6352 45.617 65.4475 46.4331 66.4495 46.4331C67.4514 46.4331 68.2637 45.617 68.2637 44.6098V44.388C68.9391 44.4539 69.6259 44.4882 70.3199 44.4882C71.0207 44.4882 71.7069 44.4551 72.376 44.3917V44.6098C72.376 45.617 73.1883 46.4331 74.1903 46.4331C75.1922 46.4331 76.0045 45.617 76.0045 44.6098V43.7027C80.6142 42.3503 83.7454 39.3832 83.7454 35.8579C83.7454 32.3326 80.6142 29.3655 76.0045 28.013V18.2348C78.5639 19.2128 80.1169 20.7801 80.1169 22.2443C80.1169 23.2515 80.9292 24.0677 81.9311 24.0677C82.9331 24.0677 83.7454 23.2515 83.7454 22.2443C83.7454 18.719 80.6142 15.7519 76.0045 14.3995V13.4925C76.0045 12.4853 75.1922 11.6692 74.1903 11.6692C73.1883 11.6692 72.376 12.4853 72.376 13.4925V13.7105C71.7069 13.6471 71.0207 13.614 70.3199 13.614C69.6191 13.614 68.9328 13.6471 68.2637 13.7105V13.4925C68.2637 12.4853 67.4514 11.6692 66.4495 11.6692C65.4475 11.6692 64.6352 12.4853 64.6352 13.4925V14.3995C60.0256 15.7519 56.8944 18.719 56.8944 22.2443C56.8944 25.7696 60.0256 28.7368 64.6352 30.0892V39.8733C62.7457 39.1693 61.3524 38.1681 60.5846 37.1609C59.8811 35.3099 58.8192 33.5929 57.4196 32.0956C54.4855 28.9565 50.5094 27.2281 46.2244 27.2281H45.1071C46.0403 14.0677 56.9914 3.64661 70.3199 3.64661ZM68.2637 17.3759C68.9195 17.301 69.6063 17.2606 70.3199 17.2606C71.0335 17.2606 71.7202 17.301 72.376 17.3759V27.3246C71.7069 27.2611 71.0207 27.2281 70.3199 27.2281C69.6063 27.2281 68.9195 27.1877 68.2637 27.1128V17.3759ZM64.6352 26.2539C62.0759 25.2759 60.5229 23.7086 60.5229 22.2443C60.5229 20.7801 62.0759 19.2128 64.6352 18.2348V26.2539ZM70.3199 30.8747C71.0335 30.8747 71.7202 30.915 72.376 30.9899V40.7268C71.7202 40.8017 71.0335 40.8421 70.3199 40.8421C69.6039 40.8421 68.92 40.7971 68.2637 40.722V30.7782C68.9328 30.8416 69.6191 30.8747 70.3199 30.8747ZM76.0045 31.8488C78.5639 32.8268 80.1169 34.3941 80.1169 35.8584C80.1169 37.3226 78.5639 38.8899 76.0045 39.8679V31.8488ZM23.9381 34.5923C26.1791 32.195 29.2159 30.8747 32.4888 30.8747H46.2242C49.4971 30.8747 52.5339 32.195 54.7749 34.5923C57.0158 36.9896 58.1375 40.1179 57.9336 43.4008L57.5923 48.8885C56.0562 45.7529 54.4657 43.6604 54.3375 43.4941C53.8399 42.8482 52.9756 42.6131 52.2216 42.9204C43.109 46.6302 25.9819 46.6767 25.8099 46.6767C25.4035 46.6767 25.0087 46.8138 24.6892 47.0664C24.5627 47.1663 22.8863 48.5194 21.2566 51.0733L20.7796 43.401C20.5754 40.1179 21.6971 36.9896 23.9381 34.5923ZM21.8207 60.2511C22.3657 54.8176 25.3866 51.4117 26.5102 50.3177C29.7742 50.2761 43.3451 49.9153 52.2264 46.8118C53.719 49.073 56.8944 54.5451 56.8944 60.1689C56.8944 70.9599 49.0271 79.7391 39.3566 79.7391C29.7108 79.7393 21.8606 71.0044 21.8207 60.2511ZM4.40195 106.846V99.1736C4.40195 96.495 6.19782 94.1322 8.76922 93.4272L23.0907 89.5018L28.7969 98.1036C29.4225 99.0467 30.4249 99.6515 31.5473 99.7633C31.6721 99.7757 31.7967 99.7818 31.9206 99.7818C32.6792 99.7818 33.4121 99.5501 34.0326 99.1223C34.3483 99.9676 34.8575 100.718 35.5063 101.319L33.9566 108.912H17.9484V102.956C17.9484 101.949 17.1361 101.133 16.1341 101.133C15.1322 101.133 14.3199 101.949 14.3199 102.956V108.912H6.4581C5.32432 108.912 4.40195 107.985 4.40195 106.846ZM74.3112 99.1736V106.846C74.3112 107.985 73.3889 108.912 72.2551 108.912H64.3933V102.956C64.3933 101.949 63.581 101.133 62.5791 101.133C61.5771 101.133 60.7648 101.949 60.7648 102.956V108.912H52.7607H44.7565L43.2069 101.32C43.8557 100.719 44.3649 99.968 44.6806 99.1227C45.3011 99.5506 46.034 99.7823 46.7926 99.7823C46.9165 99.7823 47.0413 99.7762 47.1659 99.7638C48.2883 99.652 49.2907 99.0471 49.9163 98.1041L55.6225 89.5023L69.9442 93.4277C72.5154 94.1322 74.3112 96.4952 74.3112 99.1736Z" fill="white"/>
</svg>
