<svg width="31" height="31" viewBox="0 0 31 31" fill="none" xmlns="http://www.w3.org/2000/svg">
<g filter="url(#filter0_b_24_844)">
<path d="M15.1553 6.41849e-05C19.1314 6.40085e-05 22.9448 1.60289 25.7564 4.45593C28.5679 7.30898 30.1475 11.1785 30.1475 15.2133C30.1475 19.2482 28.5679 23.1177 25.7564 25.9708C22.9448 28.8238 19.1314 30.4266 15.1553 30.4266C11.1791 30.4266 7.36578 28.8238 4.5542 25.9708C1.74262 23.1177 0.163085 19.2482 0.163085 15.2134C0.163085 11.1785 1.74261 7.30898 4.55419 4.45593C7.36578 1.60289 11.1791 6.43612e-05 15.1553 6.41849e-05ZM8.59619 14.2625C8.34768 14.2625 8.10935 14.3627 7.93362 14.541C7.7579 14.7193 7.65918 14.9612 7.65918 15.2133C7.65918 15.4655 7.7579 15.7074 7.93362 15.8857C8.10935 16.064 8.34768 16.1642 8.59619 16.1642L19.4524 16.1642L15.4289 20.2451C15.2529 20.4237 15.1541 20.6658 15.1541 20.9183C15.1541 21.1708 15.2529 21.413 15.4289 21.5915C15.6048 21.7701 15.8435 21.8704 16.0923 21.8704C16.3411 21.8704 16.5797 21.7701 16.7557 21.5915L22.3778 15.8865C22.465 15.7982 22.5343 15.6933 22.5815 15.5778C22.6287 15.4623 22.653 15.3384 22.653 15.2133C22.653 15.0883 22.6287 14.9644 22.5815 14.8489C22.5343 14.7334 22.465 14.6285 22.3778 14.5402L16.7557 8.83518C16.5797 8.65664 16.3411 8.55634 16.0923 8.55634C15.8435 8.55634 15.6048 8.65664 15.4289 8.83518C15.2529 9.01372 15.1541 9.25587 15.1541 9.50837C15.1541 9.76086 15.2529 10.003 15.4289 10.1816L19.4524 14.2625L8.59619 14.2625Z" fill="url(#paint0_linear_24_844)"/>
</g>
<defs>
<filter id="filter0_b_24_844" x="-83.6712" y="-83.8342" width="197.653" height="198.095" filterUnits="userSpaceOnUse" color-interpolation-filters="sRGB">
<feFlood flood-opacity="0" result="BackgroundImageFix"/>
<feGaussianBlur in="BackgroundImage" stdDeviation="41.9171"/>
<feComposite in2="SourceAlpha" operator="in" result="effect1_backgroundBlur_24_844"/>
<feBlend mode="normal" in="SourceGraphic" in2="effect1_backgroundBlur_24_844" result="shape"/>
</filter>
<linearGradient id="paint0_linear_24_844" x1="64.6295" y1="30.4266" x2="33.3715" y2="53.5364" gradientUnits="userSpaceOnUse">
<stop offset="0.0286367" stop-color="#FF4C40"/>
<stop offset="1" stop-color="#FDA141"/>
</linearGradient>
</defs>
</svg>
