<svg width="22" height="22" viewBox="0 0 22 22" fill="none" xmlns="http://www.w3.org/2000/svg">
<path d="M10.785 1.33447C6.56908 1.33447 2.9693 4.05863 1.63965 7.82057H19.9953C18.6332 4.05863 15.0334 1.33447 10.785 1.33447Z" fill="#F9F9F9"/>
<path d="M10.785 20.7927C15.0334 20.7927 18.6332 18.0686 19.9629 14.3066H1.63965C2.9693 18.101 6.56908 20.7927 10.785 20.7927Z" fill="#ED4C5C"/>
<path d="M1.64214 7.8208C1.2854 8.82615 1.09082 9.92878 1.09082 11.0638C1.09082 12.1989 1.2854 13.3015 1.64214 14.3069H19.9978C20.3545 13.3015 20.5491 12.1989 20.5491 11.0638C20.5491 9.92878 20.3545 8.82615 19.9978 7.8208H1.64214Z" fill="#428BC1"/>
</svg>
