<svg width="25" height="25" viewBox="0 0 25 25" fill="none" xmlns="http://www.w3.org/2000/svg">
<path d="M15 10V0.25C14.2083 0.0833333 13.375 0 12.5 0C11.625 0 10.7917 0.0833333 10 0.25V10H0.25C0.0833333 10.7917 0 11.625 0 12.5C0 13.375 0.0833333 14.2083 0.25 15H10V24.75C10.7917 24.9167 11.625 25 12.5 25C13.375 25 14.2083 24.9167 15 24.75V15H24.75C24.9167 14.2083 25 13.375 25 12.5C25 11.625 24.9167 10.7917 24.75 10H15Z" fill="#ED4C5C"/>
<path d="M6.66667 7.5H5L5.41667 5L5 2.5H6.66667L6.25 5L6.66667 7.5Z" fill="#ED4C5C"/>
<path d="M3.33301 5.83341V4.16675L5.83301 4.58341L8.33301 4.16675V5.83341L5.83301 5.41675L3.33301 5.83341Z" fill="#ED4C5C"/>
<path d="M19.9997 7.5H18.333L18.7497 5L18.333 2.5H19.9997L19.583 5L19.9997 7.5Z" fill="#ED4C5C"/>
<path d="M16.667 5.83341V4.16675L19.167 4.58341L21.667 4.16675V5.83341L19.167 5.41675L16.667 5.83341Z" fill="#ED4C5C"/>
<path d="M6.66667 22.5H5C5 22.5 5.41667 20.625 5.41667 20C5.41667 19.375 5 17.5 5 17.5H6.66667C6.66667 17.5 6.25 19.375 6.25 20C6.25 20.625 6.66667 22.5 6.66667 22.5Z" fill="#ED4C5C"/>
<path d="M3.33301 20.8334V19.1667L5.83301 19.5834L8.33301 19.1667V20.8334L5.83301 20.4167L3.33301 20.8334Z" fill="#ED4C5C"/>
<path d="M19.9997 22.5H18.333L18.7497 20L18.333 17.5H19.9997L19.583 20L19.9997 22.5Z" fill="#ED4C5C"/>
<path d="M16.667 20.8334V19.1667L19.167 19.5834L21.667 19.1667V20.8334L19.167 20.4167L16.667 20.8334Z" fill="#ED4C5C"/>
</svg>
