<svg width="25" height="25" viewBox="0 0 25 25" fill="none" xmlns="http://www.w3.org/2000/svg">
<path d="M22.6253 5.16667C22.292 4.70833 21.9587 4.29167 21.5837 3.875L16.667 7.45833V8.29167H18.3337L22.6253 5.16667Z" fill="#ED4C5C"/>
<path d="M6.875 8.33325L2.45833 5.08325C2.29167 5.29159 2.16667 5.49992 2 5.70825C1.95833 5.74992 1.95833 5.79159 1.91667 5.79159C1.79167 5.99992 1.625 6.24992 1.5 6.45825L4.04167 8.33325H6.875Z" fill="#ED4C5C"/>
<path d="M24.75 10H15V0.25C14.2083 0.0833333 13.375 0 12.5 0C11.625 0 10.7917 0.0833333 10 0.25V10H0.25C0.0833333 10.7917 0 11.625 0 12.5C0 13.375 0.0833333 14.2083 0.25 15H10V24.75C10.7917 24.9167 11.625 25 12.5 25C13.375 25 14.2083 24.9167 15 24.75V15H24.75C24.9167 14.2083 25 13.375 25 12.5C25 11.625 24.9167 10.7917 24.75 10Z" fill="#ED4C5C"/>
</svg>
