<svg width="25" height="25" viewBox="0 0 25 25" fill="none" xmlns="http://www.w3.org/2000/svg">
<path d="M8.33268 24.2917V18.5417L4.04102 21.7084C5.24935 22.8334 6.70768 23.7084 8.33268 24.2917" fill="#2A5F9E"/>
<path d="M16.666 24.2917C18.291 23.7083 19.7493 22.8333 20.9577 21.7083L16.666 18.5V24.2917Z" fill="#2A5F9E"/>
<path d="M0.708008 16.6667C0.833008 17.0834 0.999674 17.4584 1.20801 17.8751L2.83301 16.6667H0.708008Z" fill="#2A5F9E"/>
<path d="M22.166 16.6667L23.791 17.8751C23.9577 17.5001 24.1243 17.0834 24.291 16.6667H22.166Z" fill="#2A5F9E"/>
<path d="M8.95833 15H0.25C0.375 15.5833 0.541667 16.125 0.708333 16.6667H2.83333L1.20833 17.875C1.54167 18.5833 1.91667 19.2083 2.375 19.8333L6.66667 16.6667H8.33333V17.5L3.45833 21.0833L4.04167 21.6667L8.33333 18.5417V24.2917C8.875 24.5 9.41667 24.625 10 24.75V15H8.95833Z" fill="white"/>
<path d="M24.75 15H15V24.75C15.5833 24.625 16.125 24.4583 16.6667 24.2917V18.5417L20.9583 21.6667C21.5417 21.125 22.0417 20.5417 22.5417 19.9167L18.0833 16.6667H20.9167L23.4583 18.5417C23.5833 18.3333 23.7083 18.0833 23.7917 17.875L22.1667 16.6667H24.2917C24.4583 16.125 24.625 15.5833 24.75 15" fill="white"/>
<path d="M2.375 19.8335C2.70833 20.2918 3.04167 20.7085 3.41667 21.1252L8.33333 17.5418V16.7085H6.66667L2.375 19.8335Z" fill="#ED4C5C"/>
<path d="M18.125 16.6667L22.5833 19.9167C22.75 19.7084 22.875 19.5001 23.0417 19.2917C23.0833 19.2501 23.0833 19.2084 23.125 19.2084C23.25 19.0001 23.4167 18.7501 23.5417 18.5417L20.9167 16.6667H18.125Z" fill="#ED4C5C"/>
<path d="M16.666 0.708252V6.45825L20.9577 3.29159C19.7493 2.16659 18.291 1.29159 16.666 0.708252Z" fill="#2A5F9E"/>
<path d="M8.33268 0.708252C6.70768 1.29159 5.24935 2.16659 4.04102 3.29158L8.33268 6.49992V0.708252Z" fill="#2A5F9E"/>
<path d="M24.291 8.33333C24.166 7.91667 23.9993 7.54167 23.791 7.125L22.166 8.33333H24.291" fill="#2A5F9E"/>
<path d="M2.83301 8.33333L1.20801 7.125C1.04134 7.54167 0.874674 7.91667 0.708008 8.33333H2.83301Z" fill="#2A5F9E"/>
<path d="M16.0417 10H24.7083C24.5833 9.41667 24.4167 8.875 24.25 8.33333H22.125L23.75 7.125C23.4167 6.41667 23.0417 5.79167 22.5833 5.16667L18.3333 8.33333H16.6667V7.5L21.5417 3.91667L20.9583 3.33333L16.6667 6.45833V0.708333C16.125 0.5 15.5833 0.375 15 0.25V10H16.0417Z" fill="white"/>
<path d="M0.25 10H10V0.25C9.41667 0.375 8.875 0.541667 8.33333 0.708333V6.45833L4.04167 3.33333C3.45833 3.875 2.95833 4.45833 2.45833 5.08333L6.91667 8.33333H4.08333L1.54167 6.45833C1.41667 6.66667 1.29167 6.91667 1.20833 7.125L2.83333 8.33333H0.708333C0.541667 8.875 0.375 9.41667 0.25 10Z" fill="white"/>
<path d="M22.6253 5.16667C22.292 4.70833 21.9587 4.29167 21.5837 3.875L16.667 7.45833V8.29167H18.3337L22.6253 5.16667" fill="#ED4C5C"/>
<path d="M6.875 8.33325L2.45833 5.08325C2.29167 5.29159 2.16667 5.49992 2 5.70825C1.95833 5.74992 1.95833 5.79159 1.91667 5.79159C1.79167 5.99992 1.625 6.24992 1.5 6.45825L4.04167 8.33325H6.875Z" fill="#ED4C5C"/>
<path d="M24.75 10H15V0.25C14.2083 0.0833333 13.375 0 12.5 0C11.625 0 10.7917 0.0833333 10 0.25V10H0.25C0.0833333 10.7917 0 11.625 0 12.5C0 13.375 0.0833333 14.2083 0.25 15H10V24.75C10.7917 24.9167 11.625 25 12.5 25C13.375 25 14.2083 24.9167 15 24.75V15H24.75C24.9167 14.2083 25 13.375 25 12.5C25 11.625 24.9167 10.7917 24.75 10Z" fill="#ED4C5C"/>
</svg>
