<svg width="79" height="78" viewBox="0 0 79 78" fill="none" xmlns="http://www.w3.org/2000/svg">
<g filter="url(#filter0_b_24_898)">
<path fill-rule="evenodd" clip-rule="evenodd" d="M39.1223 0.113037C17.5161 0.113037 0 17.3802 0 38.6793C0 59.9784 17.5161 77.2456 39.1223 77.2456C60.7284 77.2456 78.2445 59.9784 78.2445 38.6793C78.2445 17.3802 60.7284 0.113037 39.1223 0.113037ZM37.344 17.6432C36.4007 17.6432 35.4961 18.0126 34.8291 18.6701C34.1621 19.3276 33.7874 20.2193 33.7874 21.1492C33.7874 22.079 34.1621 22.9708 34.8291 23.6283C35.4961 24.2858 36.4007 24.6552 37.344 24.6552H39.1223C40.0655 24.6552 40.9701 24.2858 41.6371 23.6283C42.3041 22.9708 42.6788 22.079 42.6788 21.1492C42.6788 20.2193 42.3041 19.3276 41.6371 18.6701C40.9701 18.0126 40.0655 17.6432 39.1223 17.6432H37.344ZM32.0091 31.6673C31.0659 31.6673 30.1612 32.0367 29.4942 32.6942C28.8273 33.3517 28.4525 34.2434 28.4525 35.1733C28.4525 36.1032 28.8273 36.9949 29.4942 37.6524C30.1612 38.3099 31.0659 38.6793 32.0091 38.6793H35.5657V49.1974H32.0091C31.0659 49.1974 30.1612 49.5668 29.4942 50.2243C28.8273 50.8818 28.4525 51.7736 28.4525 52.7034C28.4525 53.6333 28.8273 54.5251 29.4942 55.1826C30.1612 55.8401 31.0659 56.2095 32.0091 56.2095H46.2354C47.1787 56.2095 48.0833 55.8401 48.7503 55.1826C49.4173 54.5251 49.792 53.6333 49.792 52.7034C49.792 51.7736 49.4173 50.8818 48.7503 50.2243C48.0833 49.5668 47.1787 49.1974 46.2354 49.1974H42.6788V35.1733C42.6788 34.2434 42.3041 33.3517 41.6371 32.6942C40.9701 32.0367 40.0655 31.6673 39.1223 31.6673H32.0091Z" fill="url(#paint0_radial_24_898)"/>
</g>
<defs>
<filter id="filter0_b_24_898" x="-85.8068" y="-85.6938" width="249.858" height="248.746" filterUnits="userSpaceOnUse" color-interpolation-filters="sRGB">
<feFlood flood-opacity="0" result="BackgroundImageFix"/>
<feGaussianBlur in="BackgroundImage" stdDeviation="42.9034"/>
<feComposite in2="SourceAlpha" operator="in" result="effect1_backgroundBlur_24_898"/>
<feBlend mode="normal" in="SourceGraphic" in2="effect1_backgroundBlur_24_898" result="shape"/>
</filter>
<radialGradient id="paint0_radial_24_898" cx="0" cy="0" r="1" gradientUnits="userSpaceOnUse" gradientTransform="translate(-24.7709 39.133) rotate(-15.0824) scale(149.957 2672.83)">
<stop offset="0.177523" stop-color="#FF5D41"/>
<stop offset="0.694254" stop-color="#FE9C41"/>
<stop offset="1" stop-color="#595959"/>
</radialGradient>
</defs>
</svg>
