<svg width="63" height="71" viewBox="0 0 63 71" fill="none" xmlns="http://www.w3.org/2000/svg">
<path d="M17.992 69.2779C17.575 69.5034 17.1581 69.5854 16.7106 69.5854C15.3479 69.5854 14.4021 68.6322 14.4021 67.2893C14.4021 65.926 15.3479 64.9932 16.731 64.9932C17.453 64.9932 18.053 65.2495 18.5717 65.803L19.6293 64.819C18.9377 64.0092 17.9004 63.5787 16.6496 63.5787C14.3818 63.5787 12.7344 65.1265 12.7344 67.2893C12.7344 69.4522 14.3818 71 16.6191 71C17.6361 71 18.714 70.6822 19.4971 70.0877L19.4971 67.1766L17.992 67.1766L17.992 69.2779ZM27.3276 70.877L25.731 68.5706C26.6564 68.1709 27.1954 67.3816 27.1954 66.3053C27.1954 64.696 26.0055 63.7017 24.1038 63.7017L21.0225 63.7017L21.0225 70.877L22.67 70.877L22.67 68.8782L24.1038 68.8782L24.1852 68.8782L25.5581 70.877L27.3276 70.877ZM25.5276 66.3053C25.5276 67.0843 25.0191 67.5559 24.0123 67.5559L22.67 67.5559L22.67 65.0547L24.0123 65.0547C25.0191 65.0547 25.5276 65.516 25.5276 66.3053ZM31.9445 71C34.1818 71 35.8395 69.4317 35.8395 67.2893C35.8395 65.147 34.1818 63.5787 31.9445 63.5787C29.6971 63.5787 28.0496 65.1573 28.0496 67.2893C28.0496 69.4214 29.6971 71 31.9445 71ZM31.9445 69.5854C30.6734 69.5854 29.7174 68.6527 29.7174 67.2893C29.7174 65.926 30.6734 64.9932 31.9445 64.9932C33.2157 64.9932 34.1717 65.926 34.1717 67.2893C34.1717 68.6527 33.2157 69.5854 31.9445 69.5854ZM40.2429 71C42.2666 71 43.4666 69.8315 43.4666 67.7199L43.4666 63.7017L41.8394 63.7017L41.8394 67.6584C41.8394 69.0217 41.2598 69.5854 40.253 69.5854C39.2564 69.5854 38.6666 69.0217 38.6666 67.6584L38.6666 63.7017L37.0191 63.7017L37.0191 67.7199C37.0191 69.8315 38.2191 71 40.2429 71ZM48.175 63.7017L45.0937 63.7017L45.0937 70.877L46.7412 70.877L46.7412 68.8987L48.175 68.8987C50.0768 68.8987 51.2666 67.9044 51.2666 66.3053C51.2666 64.696 50.0768 63.7017 48.175 63.7017ZM48.0835 67.5456L46.7412 67.5456L46.7412 65.0547L48.0835 65.0547C49.0903 65.0547 49.5988 65.516 49.5988 66.3053C49.5988 67.0843 49.0903 67.5456 48.0835 67.5456Z" fill="white"/>
<path d="M61.9955 21.4342L48.4339 29.3263L44.5672 27.0761L44.5672 29.3367L48.4339 31.5869L61.9955 23.6947L61.9955 21.4342ZM44.5672 18.047L48.4339 20.2973L61.9955 12.4051L61.9955 14.6657L48.4339 22.5578L44.5672 20.3076L44.5672 18.047ZM44.5615 13.5325L48.4282 15.7827L48.4339 15.7794L48.4396 15.7827L60.0505 9.02583L48.4339 2.26564L38.7539 7.89887L38.7539 5.63828L48.4339 0.00505171L61.9842 7.89058L61.9842 7.90052L62.0012 7.89058L62.0012 10.1512L48.4396 18.0433L48.4339 18.04L48.4282 18.0433L44.5615 15.7931L44.5615 13.5325ZM44.5672 22.5616L48.4339 24.8118L61.9955 16.9196L61.9955 19.1802L48.4339 27.0724L44.5672 24.8221L44.5672 22.5616Z" fill="url(#paint0_linear_24_936)"/>
<path d="M23.2473 7.894L13.5673 2.26077L1.95079 9.02099L13.5617 15.7779L13.5673 15.7745L13.573 15.7779L17.4398 13.5276L17.4398 15.7882L13.573 18.0385L13.5673 18.0351L13.5617 18.0385L-1.85918e-06 10.1463L-2.05524e-06 7.88573L0.0170773 7.89565L0.0170773 7.88571L13.5673 0.000208613L23.2473 5.63344L23.2473 7.894ZM0.00569557 21.4293L13.5673 29.3215L17.4341 27.0712L17.4341 29.3318L13.5673 31.582L0.00569576 23.6899L0.00569557 21.4293ZM0.00569478 12.4002L13.5673 20.2924L17.4341 18.0422L17.4341 20.3027L13.5673 22.553L0.00569498 14.6608L0.00569478 12.4002ZM0.00569517 16.9148L13.5673 24.8069L17.4341 22.5567L17.4341 24.8173L13.5673 27.0675L0.00569537 19.1754L0.00569517 16.9148Z" fill="url(#paint1_linear_24_936)"/>
<path d="M15.8983 57.0403L15.8983 53.8135L22.3206 53.8135L22.3206 51.3038L15.8983 51.3038L15.8983 48.2763L23.1703 48.2763L23.1703 45.6869L12.7168 45.6869L12.7168 59.6297L23.4272 59.6297L23.4272 57.0403L15.8983 57.0403ZM30.5214 59.8687C34.4736 59.8687 36.3904 57.8768 36.3904 55.5497C36.3904 50.4307 28.3477 52.2068 28.3477 49.634C28.3477 48.7543 29.0788 48.0373 30.9759 48.0372C32.201 48.0372 33.5251 48.3958 34.8095 49.1328L35.7976 46.6828C34.5131 45.8662 32.7346 45.4479 30.9956 45.4479C27.0632 45.4479 25.1662 47.4198 25.1662 49.7934C25.1662 54.9721 33.2089 53.1795 33.2089 55.7888C33.2089 56.6419 32.4382 57.2793 30.5411 57.2793C28.8812 57.2793 27.1423 56.6818 25.9764 55.8286L24.8895 58.2553C26.1147 59.2113 28.3279 59.8687 30.5214 59.8687ZM48.741 52.3794C49.8673 51.7819 50.5787 50.7063 50.5787 49.312C50.5787 47.1409 48.8002 45.6869 45.3421 45.6869L38.5838 45.6869L38.5838 59.6296L45.7373 59.6296C49.3733 59.6296 51.2704 58.2353 51.2704 55.8253C51.2704 54.0725 50.2823 52.8774 48.741 52.3794ZM44.9469 48.1169C46.508 48.1169 47.3577 48.6547 47.3577 49.7502C47.3577 50.8457 46.508 51.4034 44.9469 51.4034L41.7654 51.4034L41.7654 48.1169L44.9469 48.1169ZM45.5001 57.1996L41.7654 57.1996L41.7654 53.7538L45.5001 53.7538C47.1601 53.7538 48.0493 54.3115 48.0493 55.4867C48.0493 56.6818 47.1601 57.1996 45.5001 57.1996Z" fill="white"/>
<path d="M17.4393 22.5565L31.0009 30.4487L44.5626 22.5565L44.5626 24.8171L31.0009 32.7092L17.4393 24.8171L17.4393 22.5565ZM44.5569 31.5856L30.9952 39.4777L17.4336 31.5856L17.4336 33.8461L30.9952 41.7383L44.5569 33.8461L44.5569 31.5856ZM17.4393 11.2801L17.4421 11.2784L30.9952 19.1656L31.0009 19.1623L31.0066 19.1656L44.5683 11.2735L44.5683 9.0129L44.5512 9.02282L44.5512 9.01288L31.0009 1.12739L17.4421 9.01789L17.4336 9.01291L17.4336 11.2735L17.4393 11.2768L17.4393 11.2801ZM19.3844 10.1482L31.0009 3.38795L42.6175 10.1482L31.0066 16.905L31.0009 16.9017L30.9952 16.905L19.3844 10.1482ZM17.4336 27.071L30.9952 34.9632L44.5569 27.071L44.5569 29.3316L30.9952 37.2237L17.4336 29.3316L17.4336 27.071ZM44.5626 13.5274L31.0009 21.4196L17.4393 13.5274L17.4393 15.788L31.0009 23.6801L44.5626 15.788L44.5626 13.5274ZM44.5626 18.0419L31.0009 25.9341L17.4393 18.042L17.4393 20.3025L31.0009 28.1947L44.5626 20.3025L44.5626 18.0419Z" fill="url(#paint2_linear_24_936)"/>
<defs>
<linearGradient id="paint0_linear_24_936" x1="61.9971" y1="18.6166" x2="44.5598" y2="18.6107" gradientUnits="userSpaceOnUse">
<stop stop-color="#FF7650"/>
<stop offset="1" stop-color="#FBC434"/>
</linearGradient>
<linearGradient id="paint1_linear_24_936" x1="-0.188888" y1="18.9825" x2="17.6346" y2="18.2467" gradientUnits="userSpaceOnUse">
<stop stop-color="#FA0000"/>
<stop offset="1" stop-color="#FF8269"/>
</linearGradient>
<linearGradient id="paint2_linear_24_936" x1="25.6613" y1="38.6346" x2="36.4568" y2="20.0835" gradientUnits="userSpaceOnUse">
<stop stop-color="#002D94"/>
<stop offset="1" stop-color="#19AEC6"/>
</linearGradient>
</defs>
</svg>
