<svg width="184" height="184" viewBox="0 0 184 184" fill="none" xmlns="http://www.w3.org/2000/svg">
<path d="M165.6 6.68017C165.6 5.02331 164.257 3.68018 162.6 3.68018H21.4004C19.7435 3.68018 18.4004 5.02332 18.4004 6.68018V147.88C18.4004 149.537 19.7435 150.88 21.4004 150.88H72.349C73.3455 150.88 74.2769 151.375 74.8348 152.201L91.4726 176.825C92.6621 178.586 95.2544 178.586 96.444 176.826L113.085 152.2C113.643 151.375 114.574 150.88 115.571 150.88H162.6C164.257 150.88 165.6 149.537 165.6 147.88V6.68017Z" fill="#4D4C4C"/>
<path fill-rule="evenodd" clip-rule="evenodd" d="M140.191 36.1137V32.6242L140.164 32.6396V32.6242L118.881 20.4521L103.677 29.1476V32.6371L118.881 23.9416L137.127 34.3766L118.89 44.8066L118.881 44.8014L118.872 44.8066L112.799 41.3331V44.8226L118.872 48.296L118.881 48.2909L118.89 48.296L140.191 36.1137L140.191 36.1137ZM140.182 53.5302L118.881 65.7125L112.808 62.2391V65.7285L118.881 69.2019L140.182 57.0196V53.5302ZM112.808 48.3018L118.881 51.7752L140.182 39.5929V43.0824L118.881 55.2647L112.808 51.7912V48.3018ZM112.808 55.2704L118.881 58.7439L140.182 46.5615V50.051L118.881 62.2333L112.808 58.7598V55.2704Z" fill="url(#paint0_linear_24_1001)"/>
<path fill-rule="evenodd" clip-rule="evenodd" d="M42.8077 32.6164V36.1058L64.1086 48.2882L64.1176 48.283L64.1265 48.2882L70.1999 44.8147V41.3252L64.1265 44.7987L64.1176 44.7936L64.1086 44.7987L45.8717 34.3688L64.1176 23.9338L79.3217 32.6292V29.1398L64.1176 20.4443L42.8346 32.6164V32.6318L42.8076 32.6164L42.8077 32.6164ZM42.8166 53.5223L64.1176 65.7046L70.1909 62.2312V65.7206L64.1176 69.194L42.8166 57.0117V53.5223ZM42.8166 39.585L64.1176 51.7674L70.1909 48.2939V51.7833L64.1176 55.2568L42.8166 43.0745V39.585ZM42.8166 46.5536L64.1176 58.736L70.1909 55.2625V58.752L64.1176 62.2254L42.8166 50.0431V46.5536Z" fill="url(#paint1_linear_24_1001)"/>
<path d="M67.7785 108.492V103.511H77.8657V99.6374H67.7785V94.964H79.2003V90.967H62.7812V112.489H79.6039V108.492H67.7785V108.492ZM90.7464 112.858C96.9541 112.858 99.9648 109.783 99.9648 106.191C99.9648 98.2897 87.3324 101.031 87.3324 97.0599C87.3324 95.702 88.4808 94.5951 91.4604 94.5951C93.3847 94.5951 95.4643 95.1485 97.4818 96.2861L99.0336 92.5043C97.0162 91.2438 94.2228 90.5981 91.4913 90.5981C85.3148 90.5981 82.3353 93.642 82.3353 97.3059C82.3353 105.3 94.9677 102.533 94.9677 106.56C94.9677 107.877 93.7571 108.861 90.7774 108.861C88.1702 108.861 85.439 107.939 83.6077 106.622L81.9006 110.368C83.825 111.843 87.3013 112.858 90.7464 112.858V112.858ZM119.363 101.298C121.133 100.375 122.25 98.715 122.25 96.5627C122.25 93.2115 119.457 90.967 114.025 90.967H103.41V112.489H114.646C120.357 112.489 123.336 110.337 123.336 106.617C123.336 103.911 121.784 102.066 119.363 101.298ZM113.404 94.718C115.856 94.718 117.191 95.5482 117.191 97.2392C117.191 98.9301 115.856 99.7911 113.404 99.7911H108.407V94.718H113.404ZM114.273 108.738H108.407V103.419H114.273C116.88 103.419 118.277 104.28 118.277 106.094C118.277 107.939 116.88 108.738 114.273 108.738Z" fill="#FEFEFE"/>
<path d="M71.0628 127.382C70.4078 127.73 69.7529 127.856 69.0502 127.856C66.9097 127.856 65.4242 126.385 65.4242 124.312C65.4242 122.208 66.9097 120.768 69.082 120.768C70.2161 120.768 71.1586 121.164 71.9733 122.018L73.6345 120.499C72.5482 119.249 70.9189 118.584 68.9543 118.584C65.3923 118.584 62.8047 120.974 62.8047 124.312C62.8047 127.651 65.3923 130.04 68.9064 130.04C70.5037 130.04 72.1968 129.549 73.4267 128.632V124.138H71.0628V127.382V127.382ZM85.7259 129.85L83.2182 126.29C84.6718 125.673 85.5182 124.455 85.5182 122.793C85.5182 120.309 83.6495 118.774 80.6624 118.774H75.8227V129.85H78.4103V126.765H80.6624H80.7903L82.9465 129.85H85.7259H85.7259ZM82.8986 122.793C82.8986 123.996 82.1001 124.724 80.5187 124.724H78.4103V120.863H80.5187C82.1001 120.863 82.8986 121.575 82.8986 122.793ZM92.9776 130.04C96.4917 130.04 99.0953 127.619 99.0953 124.312C99.0953 121.005 96.4917 118.584 92.9776 118.584C89.4477 118.584 86.8601 121.021 86.8601 124.312C86.8601 127.603 89.4477 130.04 92.9776 130.04ZM92.9776 127.856C90.981 127.856 89.4796 126.417 89.4796 124.312C89.4796 122.208 90.981 120.768 92.9776 120.768C94.9743 120.768 96.4758 122.208 96.4758 124.312C96.4758 126.417 94.9743 127.856 92.9776 127.856ZM106.012 130.04C109.19 130.04 111.075 128.236 111.075 124.977V118.774H108.519V124.882C108.519 126.986 107.609 127.856 106.027 127.856C104.462 127.856 103.536 126.986 103.536 124.882V118.774H100.948V124.977C100.948 128.236 102.833 130.04 106.012 130.04H106.012ZM118.47 118.774H113.631V129.85H116.218V126.796H118.47C121.457 126.796 123.326 125.262 123.326 122.793C123.326 120.309 121.457 118.774 118.47 118.774V118.774ZM118.327 124.708H116.218V120.863H118.327C119.908 120.863 120.707 121.575 120.707 122.793C120.707 123.996 119.908 124.708 118.327 124.708Z" fill="#FEFEFE"/>
<path fill-rule="evenodd" clip-rule="evenodd" d="M70.1984 55.2626L91.4993 67.4449L112.8 55.2626V58.752L91.4993 70.9343L70.1984 58.752V55.2626ZM112.791 69.1998L91.4904 81.3821L70.1895 69.1998V72.6893L91.4904 84.8716L112.791 72.6893V69.1998ZM70.1984 37.8564L70.2029 37.8538L91.4904 50.0285L91.4994 50.0233L91.5084 50.0285L112.809 37.8461V34.3567L112.782 34.372V34.3567L91.4993 22.1846L70.2029 34.3644L70.1895 34.3567V37.8461L70.1984 37.8512V37.8564ZM73.2535 36.1091L91.4993 25.674L109.745 36.1091L91.5083 46.539L91.4993 46.5339L91.4904 46.539L73.2535 36.1091ZM70.1895 62.2313L91.4904 74.4135L112.791 62.2313V65.7207L91.4904 77.903L70.1895 65.7207V62.2313ZM112.8 41.3253L91.4993 53.5077L70.1984 41.3253V44.8148L91.4993 56.9971L112.8 44.8148V41.3253ZM112.8 48.294L91.4993 60.4763L70.1984 48.294V51.7834L91.4993 63.9657L112.8 51.7834V48.294Z" fill="url(#paint2_linear_24_1001)"/>
<defs>
<linearGradient id="paint0_linear_24_1001" x1="140.184" y1="49.181" x2="112.796" y2="49.1718" gradientUnits="userSpaceOnUse">
<stop stop-color="#FF7650"/>
<stop offset="1" stop-color="#FBC434"/>
</linearGradient>
<linearGradient id="paint1_linear_24_1001" x1="42.511" y1="49.7453" x2="70.5052" y2="48.5914" gradientUnits="userSpaceOnUse">
<stop stop-color="#FA0000"/>
<stop offset="1" stop-color="#FF8269"/>
</linearGradient>
<linearGradient id="paint2_linear_24_1001" x1="91.4899" y1="84.871" x2="91.4899" y2="46.5389" gradientUnits="userSpaceOnUse">
<stop stop-color="#596FCF"/>
<stop offset="1" stop-color="#19AEC6"/>
</linearGradient>
</defs>
</svg>
