<svg width="125" height="125" viewBox="0 0 125 125" fill="none" xmlns="http://www.w3.org/2000/svg">
<path d="M62.547 0.675781C28.2455 0.675781 0.432617 28.4403 0.432617 62.6824C0.432617 96.9244 28.2455 124.689 62.547 124.689C96.8486 124.689 124.661 96.9244 124.661 62.6824C124.661 28.4403 96.8486 0.675781 62.547 0.675781ZM82.5263 63.6374L52.2455 85.6303C52.0795 85.7494 51.8838 85.8205 51.6799 85.8358C51.4761 85.8511 51.272 85.81 51.09 85.717C50.908 85.6241 50.7552 85.4828 50.6484 85.3088C50.5416 85.1348 50.485 84.9348 50.4846 84.7307V40.7725C50.484 40.568 50.54 40.3673 50.6466 40.1927C50.7532 40.0181 50.9061 39.8763 51.0885 39.7832C51.2708 39.69 51.4754 39.6491 51.6797 39.6649C51.8839 39.6807 52.0797 39.7527 52.2455 39.8728L82.5263 61.8519C82.6693 61.9529 82.786 62.0867 82.8666 62.242C82.9471 62.3974 82.9891 62.5697 82.9891 62.7446C82.9891 62.9196 82.9471 63.0919 82.8666 63.2473C82.786 63.4026 82.6693 63.5364 82.5263 63.6374Z" fill="white" fill-opacity="0.85"/>
</svg>
