<svg width="30" height="29" viewBox="0 0 30 29" fill="none" xmlns="http://www.w3.org/2000/svg">
<path d="M23.8813 21.9392C22.6692 21.0123 21.3146 20.2813 19.8174 19.7461C18.3202 19.2119 16.7516 18.9448 15.1118 18.9448C13.472 18.9448 11.9035 19.2119 10.4063 19.7461C8.90906 20.2813 7.55443 21.0123 6.34239 21.9392C5.5106 20.9648 4.86275 19.8597 4.39885 18.6239C3.9359 17.3881 3.70443 16.0691 3.70443 14.667C3.70443 11.5062 4.81522 8.8145 7.03682 6.59195C9.25936 4.37036 11.951 3.25957 15.1118 3.25957C18.2726 3.25957 20.9638 4.37036 23.1854 6.59196C25.408 8.8145 26.5192 11.5062 26.5192 14.667C26.5192 16.0691 26.2873 17.3881 25.8234 18.6239C25.3604 19.8597 24.7131 20.9648 23.8813 21.9392ZM15.1118 16.0929C16.514 16.0929 17.6966 15.6119 18.6595 14.6499C19.6216 13.6869 20.1026 12.5043 20.1026 11.1022C20.1026 9.7 19.6216 8.51743 18.6595 7.55446C17.6966 6.59243 16.514 6.11142 15.1118 6.11142C13.7097 6.11142 12.5271 6.59243 11.5641 7.55446C10.6021 8.51743 10.1211 9.7 10.1211 11.1022C10.1211 12.5043 10.6021 13.6869 11.5641 14.6499C12.5271 15.6119 13.7097 16.0929 15.1118 16.0929ZM15.1118 28.9262C17.0844 28.9262 18.9381 28.5517 20.6729 27.8026C22.4078 27.0545 23.9169 26.0387 25.2003 24.7554C26.4836 23.4721 27.4993 21.963 28.2475 20.2281C28.9965 18.4932 29.3711 16.6395 29.3711 14.667C29.3711 12.6944 28.9965 10.8407 28.2475 9.10586C27.4993 7.37099 26.4836 5.86188 25.2003 4.57855C23.9169 3.29521 22.4078 2.279 20.6729 1.52992C18.9381 0.781782 17.0844 0.407714 15.1118 0.407714C13.1393 0.407713 11.2856 0.781781 9.55072 1.52992C7.81585 2.279 6.30674 3.29521 5.02341 4.57855C3.74008 5.86188 2.72434 7.37099 1.97621 9.10586C1.22712 10.8407 0.852576 12.6944 0.852576 14.667C0.852576 16.6395 1.22712 18.4932 1.9762 20.2281C2.72434 21.963 3.74007 23.4721 5.02341 24.7554C6.30674 26.0387 7.81585 27.0545 9.55072 27.8026C11.2856 28.5517 13.1393 28.9262 15.1118 28.9262Z" fill="white"/>
</svg>
