<svg width="14" height="14" viewBox="0 0 14 14" fill="none" xmlns="http://www.w3.org/2000/svg">
<path d="M12.9467 3.44676L12.9427 3.43096C12.6232 2.13941 11.1829 0.753507 9.8602 0.465179L9.84528 0.462107C7.70586 0.0539721 5.5366 0.0539721 3.39762 0.462107L3.38226 0.465179C2.05999 0.753507 0.619664 2.13941 0.299738 3.43096L0.296227 3.44676C-0.0987425 5.25045 -0.0987425 7.0796 0.296227 8.8833L0.299738 8.8991C0.606016 10.1355 1.93908 11.4578 3.21242 11.8214V13.2631C3.21242 13.7849 3.84832 14.0412 4.20994 13.6647L5.67067 12.1463C5.98748 12.164 6.30447 12.1739 6.62145 12.1739C7.6984 12.1739 8.77579 12.0721 9.84528 11.868L9.8602 11.8649C11.1829 11.5766 12.6232 10.1907 12.9427 8.89914L12.9467 8.88334C13.3416 7.0796 13.3416 5.25045 12.9467 3.44676ZM11.7907 8.62174C11.5774 9.46434 10.4838 10.5119 9.61488 10.7054C8.47733 10.9217 7.33077 11.0142 6.18536 10.9825C6.16258 10.9819 6.14068 10.9907 6.1248 11.007C5.96225 11.1739 5.05825 12.1019 5.05825 12.1019L3.92381 13.2661C3.84086 13.3526 3.69516 13.2938 3.69516 13.1744V10.7861C3.69516 10.7466 3.66699 10.7131 3.62824 10.7055C3.62802 10.7055 3.6278 10.7054 3.62758 10.7054C2.75865 10.5118 1.66546 9.4643 1.45173 8.6217C1.09626 6.99135 1.09626 5.33862 1.45173 3.70827C1.66546 2.86567 2.75865 1.81813 3.62758 1.62459C5.61428 1.24674 7.62862 1.24674 9.61488 1.62459C10.4843 1.81813 11.5774 2.86567 11.7907 3.70827C12.1466 5.33867 12.1466 6.99139 11.7907 8.62174Z" fill="white"/>
<path d="M8.51142 9.7241C8.37783 9.68355 8.25052 9.6563 8.13229 9.60723C6.90718 9.09895 5.77968 8.44321 4.88656 7.43801C4.37867 6.86641 3.98116 6.22107 3.64513 5.53812C3.48578 5.21425 3.35149 4.87769 3.21461 4.54332C3.0898 4.23841 3.27363 3.9234 3.46721 3.69366C3.64886 3.47805 3.88259 3.31304 4.13572 3.19143C4.33329 3.09651 4.52819 3.15123 4.67249 3.3187C4.98443 3.68075 5.27095 4.06133 5.50298 4.48101C5.64565 4.73914 5.6065 5.05468 5.34793 5.23035C5.28509 5.27305 5.22781 5.32317 5.16927 5.3714C5.11793 5.41366 5.06961 5.45636 5.03441 5.51359C4.97007 5.6183 4.967 5.74179 5.00843 5.85563C5.3273 6.73194 5.86477 7.41335 6.74678 7.78037C6.88792 7.83908 7.02967 7.90746 7.19227 7.8885C7.46457 7.85668 7.55274 7.558 7.74356 7.40194C7.93007 7.24944 8.16841 7.24742 8.36932 7.37456C8.57027 7.50174 8.76508 7.63826 8.9587 7.77624C9.14877 7.91167 9.33801 8.04416 9.51333 8.19855C9.68189 8.34702 9.73995 8.54178 9.64503 8.74326C9.47124 9.11225 9.21837 9.41923 8.8536 9.61518C8.7506 9.67043 8.62759 9.68833 8.51142 9.7241C8.37783 9.68351 8.62759 9.68833 8.51142 9.7241Z" fill="white"/>
<path d="M6.62485 2.76971C8.22733 2.8146 9.54351 3.87808 9.82556 5.46235C9.87362 5.73229 9.89073 6.00829 9.9121 6.28227C9.9211 6.39751 9.85584 6.507 9.73147 6.5085C9.60302 6.51003 9.54522 6.40256 9.53688 6.28736C9.52038 6.05933 9.50893 5.83029 9.4775 5.60415C9.31162 4.41042 8.35974 3.42281 7.17153 3.21089C6.99274 3.17899 6.80974 3.1706 6.62862 3.1516C6.51412 3.13958 6.36417 3.13264 6.3388 2.99032C6.31751 2.871 6.41823 2.77599 6.53185 2.76989C6.56275 2.76817 6.59382 2.76958 6.62485 2.76971C8.22733 2.8146 6.59382 2.76958 6.62485 2.76971Z" fill="white"/>
<path d="M9.06073 5.92666C9.0581 5.94667 9.0567 5.99371 9.04498 6.03804C9.00245 6.19892 8.75854 6.21907 8.70236 6.05669C8.68573 6.0085 8.68323 5.95369 8.68314 5.90182C8.68257 5.56241 8.6088 5.22334 8.43765 4.92804C8.26171 4.62453 7.99291 4.36938 7.67763 4.21499C7.487 4.12164 7.28082 4.06362 7.07188 4.02904C6.98056 4.01395 6.88826 4.00477 6.7965 3.992C6.68529 3.97656 6.62592 3.90568 6.63118 3.7961C6.6361 3.6934 6.71114 3.61955 6.82305 3.62587C7.19081 3.64675 7.54602 3.72623 7.87297 3.89936C8.53784 4.25145 8.91762 4.80722 9.02848 5.54933C9.03348 5.58294 9.04156 5.61625 9.0441 5.65C9.05038 5.73334 9.05433 5.81677 9.06073 5.92666C9.0581 5.94667 9.05433 5.81677 9.06073 5.92666Z" fill="white"/>
<path d="M8.06275 5.88789C7.92868 5.8903 7.85693 5.81609 7.84311 5.69317C7.83349 5.60746 7.8259 5.52061 7.80545 5.43723C7.76516 5.27301 7.67788 5.12082 7.53973 5.02019C7.47451 4.97266 7.40061 4.93803 7.32319 4.9157C7.22485 4.8873 7.12273 4.89511 7.0246 4.87107C6.91804 4.84495 6.85911 4.75868 6.87587 4.6587C6.8911 4.56773 6.97962 4.49672 7.07902 4.50392C7.7003 4.54877 8.14433 4.86997 8.20771 5.60136C8.21218 5.65297 8.21745 5.70752 8.20599 5.75689C8.18638 5.84142 8.1238 5.88376 8.06275 5.88789C7.92868 5.8903 8.1238 5.88376 8.06275 5.88789Z" fill="white"/>
</svg>
