<svg width="14" height="16" viewBox="0 0 14 16" fill="none" xmlns="http://www.w3.org/2000/svg">
<path d="M0.00585938 15.0017L0.985517 11.5223C0.355539 10.452 0.0238523 9.23434 0.0238523 7.98342C0.0238523 4.13181 3.15737 0.998291 7.00899 0.998291C10.8606 0.998291 13.9941 4.13181 13.9941 7.98342C13.9941 11.835 10.8606 14.9686 7.00899 14.9686C5.80885 14.9686 4.63368 14.6614 3.59407 14.078L0.00585938 15.0017ZM3.77752 12.8072L3.99133 12.9378C4.89774 13.4911 5.94125 13.7836 7.00899 13.7836C10.2072 13.7836 12.8092 11.1817 12.8092 7.98342C12.8092 4.78518 10.2072 2.1832 7.00899 2.1832C3.81074 2.1832 1.20876 4.78518 1.20876 7.98342C1.20876 9.09781 1.52548 10.18 2.12461 11.1129L2.2686 11.3372L1.70445 13.3409L3.77752 12.8072Z" fill="white"/>
<path d="M5.04693 4.73232L4.59368 4.70761C4.45132 4.69984 4.31167 4.74741 4.20406 4.84089C3.98433 5.0317 3.63298 5.40061 3.52507 5.88133C3.36414 6.59811 3.61284 7.47582 4.25651 8.35353C4.90018 9.23124 6.0997 10.6356 8.22082 11.2354C8.90433 11.4286 9.44202 11.2983 9.85687 11.033C10.1854 10.8228 10.4119 10.4854 10.4936 10.1041L10.5659 9.76608C10.5889 9.65864 10.5344 9.54963 10.4346 9.50364L8.90275 8.79756C8.80331 8.75175 8.68539 8.78071 8.61851 8.86739L8.01714 9.64697C7.97172 9.70586 7.89396 9.72921 7.82374 9.70455C7.41192 9.55981 6.03242 8.98206 5.27548 7.52401C5.24266 7.46077 5.25082 7.38401 5.29738 7.33008L5.87211 6.66521C5.93083 6.59732 5.94566 6.50187 5.91038 6.41936L5.25008 4.87455C5.21492 4.79231 5.13615 4.73719 5.04693 4.73232Z" fill="white"/>
</svg>
