<svg width="150" height="170" viewBox="0 0 150 170" fill="none" xmlns="http://www.w3.org/2000/svg">
<path fill-rule="evenodd" clip-rule="evenodd" d="M150 24.3053V18.8925L149.958 18.9164V18.8925L117.177 0.0117188L93.7578 13.4998V18.9124L117.177 5.42443L145.28 21.6108L117.19 37.7893L117.177 37.7813L117.163 37.7893L107.808 32.4013V37.814L117.163 43.2019L117.177 43.194L117.19 43.2019L150 24.3052L150 24.3053ZM149.986 51.3209L117.177 70.2176L107.822 64.8298V70.2424L117.177 75.6303L149.986 56.7336V51.3209ZM107.822 43.2109L117.177 48.5987L149.986 29.702V35.1147L117.177 54.0114L107.822 48.6235V43.2109ZM107.822 54.0203L117.177 59.4082L149.986 40.5115V45.9241L117.177 64.8208L107.822 59.433V54.0203Z" fill="#FEFEFE"/>
<path fill-rule="evenodd" clip-rule="evenodd" d="M7.47815e-05 18.8808V24.2934L32.8096 43.1902L32.8234 43.1822L32.8372 43.1902L42.1919 37.8022V32.3895L32.8372 37.7775L32.8234 37.7695L32.8096 37.7775L4.71961 21.599L32.8234 5.41264L56.2421 18.9006V13.488L32.8234 0L0.0415037 18.8808V18.9046L0 18.8808L7.47815e-05 18.8808ZM0.0139094 51.3091L32.8234 70.2058L42.178 64.8179V70.2306L32.8234 75.6184L0.0139094 56.7217V51.3091ZM0.0139094 29.6901L32.8234 48.5869L42.178 43.199V48.6117L32.8234 53.9996L0.0139094 35.1029V29.6901ZM0.0139094 40.4996L32.8234 59.3964L42.178 54.0085V59.4212L32.8234 64.809L0.0139094 45.9123V40.4996Z" fill="#FEFEFE"/>
<path d="M38.457 136.575V128.849H53.9942V122.84H38.457V115.591H56.0498V109.391H30.7598V142.775H56.6714V136.575H38.457V136.575ZM73.8341 143.348C83.3957 143.348 88.033 138.578 88.033 133.007C88.033 120.75 68.5755 125.002 68.5755 118.842C68.5755 116.736 70.3443 115.019 74.9337 115.019C77.8978 115.019 81.101 115.877 84.2085 117.642L86.5987 111.776C83.4913 109.821 79.1886 108.819 74.9814 108.819C65.4679 108.819 60.8785 113.541 60.8785 119.224C60.8785 131.624 80.336 127.331 80.336 133.579C80.336 135.622 78.4713 137.148 73.8818 137.148C69.866 137.148 65.6592 135.717 62.8384 133.674L60.209 139.485C63.1731 141.774 68.5276 143.348 73.8341 143.348V143.348ZM117.912 125.416C120.637 123.985 122.359 121.41 122.359 118.071C122.359 112.873 118.056 109.391 109.69 109.391H93.3394V142.775H110.646C119.442 142.775 124.032 139.437 124.032 133.666C124.032 129.469 121.641 126.608 117.912 125.416ZM108.734 115.21C112.51 115.21 114.566 116.497 114.566 119.12C114.566 121.743 112.51 123.079 108.734 123.079H101.037V115.21H108.734ZM110.072 136.957H101.037V128.706H110.072C114.088 128.706 116.239 130.042 116.239 132.856C116.239 135.717 114.088 136.957 110.072 136.957Z" fill="#FEFEFE"/>
<path d="M43.5187 165.877C42.5098 166.417 41.5011 166.613 40.4186 166.613C37.1218 166.613 34.8337 164.331 34.8337 161.115C34.8337 157.851 37.1218 155.618 40.4677 155.618C42.2145 155.618 43.6663 156.231 44.921 157.557L47.4797 155.2C45.8067 153.261 43.2971 152.231 40.271 152.231C34.7845 152.231 30.7988 155.937 30.7988 161.115C30.7988 166.294 34.7845 170 40.1971 170C42.6575 170 45.2653 169.239 47.1597 167.816V160.845H43.5187V165.877V165.877ZM66.104 169.706L62.2415 164.183C64.4803 163.226 65.7841 161.336 65.7841 158.759C65.7841 154.906 62.9057 152.525 58.3048 152.525H50.8503V169.706H54.8358V164.92H58.3048H58.5018L61.823 169.706H66.1039H66.104ZM61.7492 158.759C61.7492 160.624 60.5192 161.754 58.0834 161.754H54.8358V155.765H58.0834C60.5192 155.765 61.7492 156.869 61.7492 158.759ZM77.2737 170C82.6864 170 86.6966 166.245 86.6966 161.115C86.6966 155.986 82.6863 152.231 77.2737 152.231C71.8366 152.231 67.851 156.01 67.851 161.115C67.851 166.22 71.8366 170 77.2737 170ZM77.2737 166.613C74.1983 166.613 71.8857 164.38 71.8857 161.115C71.8857 157.851 74.1983 155.618 77.2737 155.618C80.3491 155.618 82.6618 157.851 82.6618 161.115C82.6618 164.38 80.3491 166.613 77.2737 166.613ZM97.3497 170C102.246 170 105.149 167.202 105.149 162.146V152.525H101.212V161.999C101.212 165.263 99.8099 166.613 97.3741 166.613C94.9632 166.613 93.5362 165.263 93.5362 161.999V152.525H89.5505V162.146C89.5505 167.202 92.4535 170 97.3497 170H97.3497ZM116.54 152.525H109.085V169.706H113.071V164.969H116.54C121.141 164.969 124.019 162.588 124.019 158.759C124.019 154.906 121.141 152.525 116.54 152.525V152.525ZM116.318 161.729H113.071V155.765H116.318C118.754 155.765 119.984 156.869 119.984 158.759C119.984 160.624 118.754 161.729 116.318 161.729Z" fill="#FEFEFE"/>
<path fill-rule="evenodd" clip-rule="evenodd" d="M42.1896 54.0086L74.999 72.9054L107.808 54.0086V59.4213L74.999 78.318L42.1896 59.4213V54.0086ZM107.795 75.6274L74.9853 94.5242L42.1759 75.6274V81.0402L74.9853 99.9369L107.795 81.0402V75.6274ZM42.1896 27.0089L42.1966 27.0048L74.9853 45.8897L74.9991 45.8817L75.0129 45.8897L107.822 26.9929V21.5803L107.781 21.6041V21.5803L74.999 2.69946L42.1966 21.5923L42.1758 21.5803V26.9929L42.1896 27.0009V27.0089ZM46.8953 24.2986L74.999 8.11218L103.103 24.2986L75.0129 40.477L74.999 40.469L74.9852 40.477L46.8953 24.2986ZM42.1758 64.8181L74.9852 83.7148L107.795 64.8181V70.2308L74.9852 89.1275L42.1758 70.2308V64.8181ZM107.808 32.3898L74.999 51.2865L42.1896 32.3898V37.8025L74.999 56.6992L107.808 37.8025V32.3898ZM107.808 43.1992L74.999 62.096L42.1896 43.1992V48.6119L74.999 67.5086L107.808 48.6119V43.1992Z" fill="#FEFEFE"/>
</svg>
